<?xml version="1.0" encoding="utf-8" standalone="no"?>
<!DOCTYPE svg PUBLIC "-//W3C//DTD SVG 1.1//EN"
  "http://www.w3.org/Graphics/SVG/1.1/DTD/svg11.dtd">
<svg xmlns:xlink="http://www.w3.org/1999/xlink" width="720pt" height="288pt" viewBox="0 0 720 288" xmlns="http://www.w3.org/2000/svg" version="1.1">
 <metadata>
  <rdf:RDF xmlns:dc="http://purl.org/dc/elements/1.1/" xmlns:cc="http://creativecommons.org/ns#" xmlns:rdf="http://www.w3.org/1999/02/22-rdf-syntax-ns#">
   <cc:Work>
    <dc:type rdf:resource="http://purl.org/dc/dcmitype/StillImage"/>
    <dc:date>2026-05-10T06:50:23.152943</dc:date>
    <dc:format>image/svg+xml</dc:format>
    <dc:creator>
     <cc:Agent>
      <dc:title>Matplotlib v3.10.9, https://matplotlib.org/</dc:title>
     </cc:Agent>
    </dc:creator>
   </cc:Work>
  </rdf:RDF>
 </metadata>
 <defs>
  <style type="text/css">*{stroke-linejoin: round; stroke-linecap: butt}</style>
 </defs>
 <g id="figure_1">
  <g id="patch_1">
   <path d="M 0 288
L 720 288
L 720 0
L 0 0
z
" style="fill: #ffffff"/>
  </g>
  <g id="axes_1">
   <g id="patch_2">
    <path d="M 54.02 246.04
L 374.46 246.04
L 374.46 26.88
L 54.02 26.88
z
" style="fill: #ffffff"/>
   </g>
   <g id="patch_3">
    <path d="M 68.585455 246.04
L 75.692914 246.04
L 75.692914 236.279658
L 68.585455 236.279658
z
" clip-path="url(#p99fe903b69)" style="fill: #276fbf; opacity: 0.55"/>
   </g>
   <g id="patch_4">
    <path d="M 75.692914 246.04
L 82.800374 246.04
L 82.800374 142.43022
L 75.692914 142.43022
z
" clip-path="url(#p99fe903b69)" style="fill: #276fbf; opacity: 0.55"/>
   </g>
   <g id="patch_5">
    <path d="M 82.800374 246.04
L 89.907834 246.04
L 89.907834 193.859712
L 82.800374 193.859712
z
" clip-path="url(#p99fe903b69)" style="fill: #276fbf; opacity: 0.55"/>
   </g>
   <g id="patch_6">
    <path d="M 89.907834 246.04
L 97.015294 246.04
L 97.015294 205.87244
L 89.907834 205.87244
z
" clip-path="url(#p99fe903b69)" style="fill: #276fbf; opacity: 0.55"/>
   </g>
   <g id="patch_7">
    <path d="M 97.015294 246.04
L 104.122754 246.04
L 104.122754 214.131191
L 97.015294 214.131191
z
" clip-path="url(#p99fe903b69)" style="fill: #276fbf; opacity: 0.55"/>
   </g>
   <g id="patch_8">
    <path d="M 104.122754 246.04
L 111.230214 246.04
L 111.230214 221.263748
L 104.122754 221.263748
z
" clip-path="url(#p99fe903b69)" style="fill: #276fbf; opacity: 0.55"/>
   </g>
   <g id="patch_9">
    <path d="M 111.230214 246.04
L 118.337673 246.04
L 118.337673 229.522499
L 111.230214 229.522499
z
" clip-path="url(#p99fe903b69)" style="fill: #276fbf; opacity: 0.55"/>
   </g>
   <g id="patch_10">
    <path d="M 118.337673 246.04
L 125.445133 246.04
L 125.445133 231.02409
L 118.337673 231.02409
z
" clip-path="url(#p99fe903b69)" style="fill: #276fbf; opacity: 0.55"/>
   </g>
   <g id="patch_11">
    <path d="M 125.445133 246.04
L 132.552593 246.04
L 132.552593 232.901079
L 125.445133 232.901079
z
" clip-path="url(#p99fe903b69)" style="fill: #276fbf; opacity: 0.55"/>
   </g>
   <g id="patch_12">
    <path d="M 132.552593 246.04
L 139.660053 246.04
L 139.660053 233.276476
L 132.552593 233.276476
z
" clip-path="url(#p99fe903b69)" style="fill: #276fbf; opacity: 0.55"/>
   </g>
   <g id="patch_13">
    <path d="M 139.660053 246.04
L 146.767513 246.04
L 146.767513 237.781249
L 139.660053 237.781249
z
" clip-path="url(#p99fe903b69)" style="fill: #276fbf; opacity: 0.55"/>
   </g>
   <g id="patch_14">
    <path d="M 146.767513 246.04
L 153.874973 246.04
L 153.874973 237.405852
L 146.767513 237.405852
z
" clip-path="url(#p99fe903b69)" style="fill: #276fbf; opacity: 0.55"/>
   </g>
   <g id="patch_15">
    <path d="M 153.874973 246.04
L 160.982432 246.04
L 160.982432 238.907443
L 153.874973 238.907443
z
" clip-path="url(#p99fe903b69)" style="fill: #276fbf; opacity: 0.55"/>
   </g>
   <g id="patch_16">
    <path d="M 160.982432 246.04
L 168.089892 246.04
L 168.089892 238.156647
L 160.982432 238.156647
z
" clip-path="url(#p99fe903b69)" style="fill: #276fbf; opacity: 0.55"/>
   </g>
   <g id="patch_17">
    <path d="M 168.089892 246.04
L 175.197352 246.04
L 175.197352 240.784431
L 168.089892 240.784431
z
" clip-path="url(#p99fe903b69)" style="fill: #276fbf; opacity: 0.55"/>
   </g>
   <g id="patch_18">
    <path d="M 175.197352 246.04
L 182.304812 246.04
L 182.304812 240.409034
L 175.197352 240.409034
z
" clip-path="url(#p99fe903b69)" style="fill: #276fbf; opacity: 0.55"/>
   </g>
   <g id="patch_19">
    <path d="M 182.304812 246.04
L 189.412272 246.04
L 189.412272 241.159829
L 182.304812 241.159829
z
" clip-path="url(#p99fe903b69)" style="fill: #276fbf; opacity: 0.55"/>
   </g>
   <g id="patch_20">
    <path d="M 189.412272 246.04
L 196.519732 246.04
L 196.519732 239.28284
L 189.412272 239.28284
z
" clip-path="url(#p99fe903b69)" style="fill: #276fbf; opacity: 0.55"/>
   </g>
   <g id="patch_21">
    <path d="M 196.519732 246.04
L 203.627191 246.04
L 203.627191 241.910625
L 196.519732 241.910625
z
" clip-path="url(#p99fe903b69)" style="fill: #276fbf; opacity: 0.55"/>
   </g>
   <g id="patch_22">
    <path d="M 203.627191 246.04
L 210.734651 246.04
L 210.734651 244.163011
L 203.627191 244.163011
z
" clip-path="url(#p99fe903b69)" style="fill: #276fbf; opacity: 0.55"/>
   </g>
   <g id="patch_23">
    <path d="M 210.734651 246.04
L 217.842111 246.04
L 217.842111 240.784431
L 210.734651 240.784431
z
" clip-path="url(#p99fe903b69)" style="fill: #276fbf; opacity: 0.55"/>
   </g>
   <g id="patch_24">
    <path d="M 217.842111 246.04
L 224.949571 246.04
L 224.949571 242.66142
L 217.842111 242.66142
z
" clip-path="url(#p99fe903b69)" style="fill: #276fbf; opacity: 0.55"/>
   </g>
   <g id="patch_25">
    <path d="M 224.949571 246.04
L 232.057031 246.04
L 232.057031 243.412216
L 224.949571 243.412216
z
" clip-path="url(#p99fe903b69)" style="fill: #276fbf; opacity: 0.55"/>
   </g>
   <g id="patch_26">
    <path d="M 232.057031 246.04
L 239.164491 246.04
L 239.164491 240.409034
L 232.057031 240.409034
z
" clip-path="url(#p99fe903b69)" style="fill: #276fbf; opacity: 0.55"/>
   </g>
   <g id="patch_27">
    <path d="M 239.164491 246.04
L 246.27195 246.04
L 246.27195 244.913807
L 239.164491 244.913807
z
" clip-path="url(#p99fe903b69)" style="fill: #276fbf; opacity: 0.55"/>
   </g>
   <g id="patch_28">
    <path d="M 246.27195 246.04
L 253.37941 246.04
L 253.37941 241.159829
L 246.27195 241.159829
z
" clip-path="url(#p99fe903b69)" style="fill: #276fbf; opacity: 0.55"/>
   </g>
   <g id="patch_29">
    <path d="M 253.37941 246.04
L 260.48687 246.04
L 260.48687 243.412216
L 253.37941 243.412216
z
" clip-path="url(#p99fe903b69)" style="fill: #276fbf; opacity: 0.55"/>
   </g>
   <g id="patch_30">
    <path d="M 260.48687 246.04
L 267.59433 246.04
L 267.59433 241.535227
L 260.48687 241.535227
z
" clip-path="url(#p99fe903b69)" style="fill: #276fbf; opacity: 0.55"/>
   </g>
   <g id="patch_31">
    <path d="M 267.59433 246.04
L 274.70179 246.04
L 274.70179 242.66142
L 267.59433 242.66142
z
" clip-path="url(#p99fe903b69)" style="fill: #276fbf; opacity: 0.55"/>
   </g>
   <g id="patch_32">
    <path d="M 274.70179 246.04
L 281.80925 246.04
L 281.80925 242.66142
L 274.70179 242.66142
z
" clip-path="url(#p99fe903b69)" style="fill: #276fbf; opacity: 0.55"/>
   </g>
   <g id="patch_33">
    <path d="M 281.80925 246.04
L 288.916709 246.04
L 288.916709 242.286022
L 281.80925 242.286022
z
" clip-path="url(#p99fe903b69)" style="fill: #276fbf; opacity: 0.55"/>
   </g>
   <g id="patch_34">
    <path d="M 288.916709 246.04
L 296.024169 246.04
L 296.024169 242.66142
L 288.916709 242.66142
z
" clip-path="url(#p99fe903b69)" style="fill: #276fbf; opacity: 0.55"/>
   </g>
   <g id="patch_35">
    <path d="M 296.024169 246.04
L 303.131629 246.04
L 303.131629 242.66142
L 296.024169 242.66142
z
" clip-path="url(#p99fe903b69)" style="fill: #276fbf; opacity: 0.55"/>
   </g>
   <g id="patch_36">
    <path d="M 303.131629 246.04
L 310.239089 246.04
L 310.239089 241.159829
L 303.131629 241.159829
z
" clip-path="url(#p99fe903b69)" style="fill: #276fbf; opacity: 0.55"/>
   </g>
   <g id="patch_37">
    <path d="M 310.239089 246.04
L 317.346549 246.04
L 317.346549 244.913807
L 310.239089 244.913807
z
" clip-path="url(#p99fe903b69)" style="fill: #276fbf; opacity: 0.55"/>
   </g>
   <g id="patch_38">
    <path d="M 317.346549 246.04
L 324.454009 246.04
L 324.454009 243.036818
L 317.346549 243.036818
z
" clip-path="url(#p99fe903b69)" style="fill: #276fbf; opacity: 0.55"/>
   </g>
   <g id="patch_39">
    <path d="M 324.454009 246.04
L 331.561468 246.04
L 331.561468 240.784431
L 324.454009 240.784431
z
" clip-path="url(#p99fe903b69)" style="fill: #276fbf; opacity: 0.55"/>
   </g>
   <g id="patch_40">
    <path d="M 331.561468 246.04
L 338.668928 246.04
L 338.668928 243.412216
L 331.561468 243.412216
z
" clip-path="url(#p99fe903b69)" style="fill: #276fbf; opacity: 0.55"/>
   </g>
   <g id="patch_41">
    <path d="M 338.668928 246.04
L 345.776388 246.04
L 345.776388 242.66142
L 338.668928 242.66142
z
" clip-path="url(#p99fe903b69)" style="fill: #276fbf; opacity: 0.55"/>
   </g>
   <g id="patch_42">
    <path d="M 345.776388 246.04
L 352.883848 246.04
L 352.883848 243.412216
L 345.776388 243.412216
z
" clip-path="url(#p99fe903b69)" style="fill: #276fbf; opacity: 0.55"/>
   </g>
   <g id="patch_43">
    <path d="M 73.040169 246.04
L 80.211528 246.04
L 80.211528 205.858296
L 73.040169 205.858296
z
" clip-path="url(#p99fe903b69)" style="fill: #c84630; opacity: 0.55"/>
   </g>
   <g id="patch_44">
    <path d="M 80.211528 246.04
L 87.382887 246.04
L 87.382887 187.312894
L 80.211528 187.312894
z
" clip-path="url(#p99fe903b69)" style="fill: #c84630; opacity: 0.55"/>
   </g>
   <g id="patch_45">
    <path d="M 87.382887 246.04
L 94.554247 246.04
L 94.554247 208.949196
L 87.382887 208.949196
z
" clip-path="url(#p99fe903b69)" style="fill: #c84630; opacity: 0.55"/>
   </g>
   <g id="patch_46">
    <path d="M 94.554247 246.04
L 101.725606 246.04
L 101.725606 220.969364
L 94.554247 220.969364
z
" clip-path="url(#p99fe903b69)" style="fill: #c84630; opacity: 0.55"/>
   </g>
   <g id="patch_47">
    <path d="M 101.725606 246.04
L 108.896966 246.04
L 108.896966 227.151165
L 101.725606 227.151165
z
" clip-path="url(#p99fe903b69)" style="fill: #c84630; opacity: 0.55"/>
   </g>
   <g id="patch_48">
    <path d="M 108.896966 246.04
L 116.068325 246.04
L 116.068325 231.959232
L 108.896966 231.959232
z
" clip-path="url(#p99fe903b69)" style="fill: #c84630; opacity: 0.55"/>
   </g>
   <g id="patch_49">
    <path d="M 116.068325 246.04
L 123.239685 246.04
L 123.239685 232.302665
L 116.068325 232.302665
z
" clip-path="url(#p99fe903b69)" style="fill: #c84630; opacity: 0.55"/>
   </g>
   <g id="patch_50">
    <path d="M 123.239685 246.04
L 130.411044 246.04
L 130.411044 232.989532
L 123.239685 232.989532
z
" clip-path="url(#p99fe903b69)" style="fill: #c84630; opacity: 0.55"/>
   </g>
   <g id="patch_51">
    <path d="M 130.411044 246.04
L 137.582403 246.04
L 137.582403 231.959232
L 130.411044 231.959232
z
" clip-path="url(#p99fe903b69)" style="fill: #c84630; opacity: 0.55"/>
   </g>
   <g id="patch_52">
    <path d="M 137.582403 246.04
L 144.753763 246.04
L 144.753763 232.989532
L 137.582403 232.989532
z
" clip-path="url(#p99fe903b69)" style="fill: #c84630; opacity: 0.55"/>
   </g>
   <g id="patch_53">
    <path d="M 144.753763 246.04
L 151.925122 246.04
L 151.925122 237.797599
L 144.753763 237.797599
z
" clip-path="url(#p99fe903b69)" style="fill: #c84630; opacity: 0.55"/>
   </g>
   <g id="patch_54">
    <path d="M 151.925122 246.04
L 159.096482 246.04
L 159.096482 239.514766
L 151.925122 239.514766
z
" clip-path="url(#p99fe903b69)" style="fill: #c84630; opacity: 0.55"/>
   </g>
   <g id="patch_55">
    <path d="M 159.096482 246.04
L 166.267841 246.04
L 166.267841 237.110732
L 159.096482 237.110732
z
" clip-path="url(#p99fe903b69)" style="fill: #c84630; opacity: 0.55"/>
   </g>
   <g id="patch_56">
    <path d="M 166.267841 246.04
L 173.439201 246.04
L 173.439201 239.171333
L 166.267841 239.171333
z
" clip-path="url(#p99fe903b69)" style="fill: #c84630; opacity: 0.55"/>
   </g>
   <g id="patch_57">
    <path d="M 173.439201 246.04
L 180.61056 246.04
L 180.61056 233.676399
L 173.439201 233.676399
z
" clip-path="url(#p99fe903b69)" style="fill: #c84630; opacity: 0.55"/>
   </g>
   <g id="patch_58">
    <path d="M 180.61056 246.04
L 187.781919 246.04
L 187.781919 237.797599
L 180.61056 237.797599
z
" clip-path="url(#p99fe903b69)" style="fill: #c84630; opacity: 0.55"/>
   </g>
   <g id="patch_59">
    <path d="M 187.781919 246.04
L 194.953279 246.04
L 194.953279 239.858199
L 187.781919 239.858199
z
" clip-path="url(#p99fe903b69)" style="fill: #c84630; opacity: 0.55"/>
   </g>
   <g id="patch_60">
    <path d="M 194.953279 246.04
L 202.124638 246.04
L 202.124638 237.797599
L 194.953279 237.797599
z
" clip-path="url(#p99fe903b69)" style="fill: #c84630; opacity: 0.55"/>
   </g>
   <g id="patch_61">
    <path d="M 202.124638 246.04
L 209.295998 246.04
L 209.295998 239.171333
L 202.124638 239.171333
z
" clip-path="url(#p99fe903b69)" style="fill: #c84630; opacity: 0.55"/>
   </g>
   <g id="patch_62">
    <path d="M 209.295998 246.04
L 216.467357 246.04
L 216.467357 238.484466
L 209.295998 238.484466
z
" clip-path="url(#p99fe903b69)" style="fill: #c84630; opacity: 0.55"/>
   </g>
   <g id="patch_63">
    <path d="M 216.467357 246.04
L 223.638716 246.04
L 223.638716 238.827899
L 216.467357 238.827899
z
" clip-path="url(#p99fe903b69)" style="fill: #c84630; opacity: 0.55"/>
   </g>
   <g id="patch_64">
    <path d="M 223.638716 246.04
L 230.810076 246.04
L 230.810076 241.9188
L 223.638716 241.9188
z
" clip-path="url(#p99fe903b69)" style="fill: #c84630; opacity: 0.55"/>
   </g>
   <g id="patch_65">
    <path d="M 230.810076 246.04
L 237.981435 246.04
L 237.981435 239.858199
L 230.810076 239.858199
z
" clip-path="url(#p99fe903b69)" style="fill: #c84630; opacity: 0.55"/>
   </g>
   <g id="patch_66">
    <path d="M 237.981435 246.04
L 245.152795 246.04
L 245.152795 239.858199
L 237.981435 239.858199
z
" clip-path="url(#p99fe903b69)" style="fill: #c84630; opacity: 0.55"/>
   </g>
   <g id="patch_67">
    <path d="M 245.152795 246.04
L 252.324154 246.04
L 252.324154 241.575366
L 245.152795 241.575366
z
" clip-path="url(#p99fe903b69)" style="fill: #c84630; opacity: 0.55"/>
   </g>
   <g id="patch_68">
    <path d="M 252.324154 246.04
L 259.495514 246.04
L 259.495514 241.231933
L 252.324154 241.231933
z
" clip-path="url(#p99fe903b69)" style="fill: #c84630; opacity: 0.55"/>
   </g>
   <g id="patch_69">
    <path d="M 259.495514 246.04
L 266.666873 246.04
L 266.666873 240.201633
L 259.495514 240.201633
z
" clip-path="url(#p99fe903b69)" style="fill: #c84630; opacity: 0.55"/>
   </g>
   <g id="patch_70">
    <path d="M 266.666873 246.04
L 273.838232 246.04
L 273.838232 238.141033
L 266.666873 238.141033
z
" clip-path="url(#p99fe903b69)" style="fill: #c84630; opacity: 0.55"/>
   </g>
   <g id="patch_71">
    <path d="M 273.838232 246.04
L 281.009592 246.04
L 281.009592 239.858199
L 273.838232 239.858199
z
" clip-path="url(#p99fe903b69)" style="fill: #c84630; opacity: 0.55"/>
   </g>
   <g id="patch_72">
    <path d="M 281.009592 246.04
L 288.180951 246.04
L 288.180951 239.514766
L 281.009592 239.514766
z
" clip-path="url(#p99fe903b69)" style="fill: #c84630; opacity: 0.55"/>
   </g>
   <g id="patch_73">
    <path d="M 288.180951 246.04
L 295.352311 246.04
L 295.352311 240.888499
L 288.180951 240.888499
z
" clip-path="url(#p99fe903b69)" style="fill: #c84630; opacity: 0.55"/>
   </g>
   <g id="patch_74">
    <path d="M 295.352311 246.04
L 302.52367 246.04
L 302.52367 237.454166
L 295.352311 237.454166
z
" clip-path="url(#p99fe903b69)" style="fill: #c84630; opacity: 0.55"/>
   </g>
   <g id="patch_75">
    <path d="M 302.52367 246.04
L 309.69503 246.04
L 309.69503 238.141033
L 302.52367 238.141033
z
" clip-path="url(#p99fe903b69)" style="fill: #c84630; opacity: 0.55"/>
   </g>
   <g id="patch_76">
    <path d="M 309.69503 246.04
L 316.866389 246.04
L 316.866389 240.201633
L 309.69503 240.201633
z
" clip-path="url(#p99fe903b69)" style="fill: #c84630; opacity: 0.55"/>
   </g>
   <g id="patch_77">
    <path d="M 316.866389 246.04
L 324.037748 246.04
L 324.037748 240.201633
L 316.866389 240.201633
z
" clip-path="url(#p99fe903b69)" style="fill: #c84630; opacity: 0.55"/>
   </g>
   <g id="patch_78">
    <path d="M 324.037748 246.04
L 331.209108 246.04
L 331.209108 241.575366
L 324.037748 241.575366
z
" clip-path="url(#p99fe903b69)" style="fill: #c84630; opacity: 0.55"/>
   </g>
   <g id="patch_79">
    <path d="M 331.209108 246.04
L 338.380467 246.04
L 338.380467 240.888499
L 331.209108 240.888499
z
" clip-path="url(#p99fe903b69)" style="fill: #c84630; opacity: 0.55"/>
   </g>
   <g id="patch_80">
    <path d="M 338.380467 246.04
L 345.551827 246.04
L 345.551827 238.827899
L 338.380467 238.827899
z
" clip-path="url(#p99fe903b69)" style="fill: #c84630; opacity: 0.55"/>
   </g>
   <g id="patch_81">
    <path d="M 345.551827 246.04
L 352.723186 246.04
L 352.723186 240.545066
L 345.551827 240.545066
z
" clip-path="url(#p99fe903b69)" style="fill: #c84630; opacity: 0.55"/>
   </g>
   <g id="patch_82">
    <path d="M 352.723186 246.04
L 359.894545 246.04
L 359.894545 242.605666
L 352.723186 242.605666
z
" clip-path="url(#p99fe903b69)" style="fill: #c84630; opacity: 0.55"/>
   </g>
   <g id="matplotlib.axis_1">
    <g id="xtick_1">
     <g id="line2d_1">
      <path d="M 63.108347 246.04
L 63.108347 26.88
" clip-path="url(#p99fe903b69)" style="fill: none; stroke: #b0b0b0; stroke-opacity: 0.2; stroke-width: 0.8; stroke-linecap: square"/>
     </g>
     <g id="line2d_2">
      <defs>
       <path id="m128079e89b" d="M 0 0
L 0 3.5
" style="stroke: #000000; stroke-width: 0.8"/>
      </defs>
      <g>
       <use xlink:href="#m128079e89b" x="63.108347" y="246.04" style="stroke: #000000; stroke-width: 0.8"/>
      </g>
     </g>
     <g id="text_1">
      <!-- 0.0 -->
      <g transform="translate(55.156785 260.638438) scale(0.1 -0.1)">
       <defs>
        <path id="DejaVuSans-30" d="M 2034 4250
Q 1547 4250 1301 3770
Q 1056 3291 1056 2328
Q 1056 1369 1301 889
Q 1547 409 2034 409
Q 2525 409 2770 889
Q 3016 1369 3016 2328
Q 3016 3291 2770 3770
Q 2525 4250 2034 4250
z
M 2034 4750
Q 2819 4750 3233 4129
Q 3647 3509 3647 2328
Q 3647 1150 3233 529
Q 2819 -91 2034 -91
Q 1250 -91 836 529
Q 422 1150 422 2328
Q 422 3509 836 4129
Q 1250 4750 2034 4750
z
" transform="scale(0.015625)"/>
        <path id="DejaVuSans-2e" d="M 684 794
L 1344 794
L 1344 0
L 684 0
L 684 794
z
" transform="scale(0.015625)"/>
       </defs>
       <use xlink:href="#DejaVuSans-30"/>
       <use xlink:href="#DejaVuSans-2e" transform="translate(63.623047 0)"/>
       <use xlink:href="#DejaVuSans-30" transform="translate(95.410156 0)"/>
      </g>
     </g>
    </g>
    <g id="xtick_2">
     <g id="line2d_3">
      <path d="M 122.932967 246.04
L 122.932967 26.88
" clip-path="url(#p99fe903b69)" style="fill: none; stroke: #b0b0b0; stroke-opacity: 0.2; stroke-width: 0.8; stroke-linecap: square"/>
     </g>
     <g id="line2d_4">
      <g>
       <use xlink:href="#m128079e89b" x="122.932967" y="246.04" style="stroke: #000000; stroke-width: 0.8"/>
      </g>
     </g>
     <g id="text_2">
      <!-- 0.2 -->
      <g transform="translate(114.981404 260.638438) scale(0.1 -0.1)">
       <defs>
        <path id="DejaVuSans-32" d="M 1228 531
L 3431 531
L 3431 0
L 469 0
L 469 531
Q 828 903 1448 1529
Q 2069 2156 2228 2338
Q 2531 2678 2651 2914
Q 2772 3150 2772 3378
Q 2772 3750 2511 3984
Q 2250 4219 1831 4219
Q 1534 4219 1204 4116
Q 875 4013 500 3803
L 500 4441
Q 881 4594 1212 4672
Q 1544 4750 1819 4750
Q 2544 4750 2975 4387
Q 3406 4025 3406 3419
Q 3406 3131 3298 2873
Q 3191 2616 2906 2266
Q 2828 2175 2409 1742
Q 1991 1309 1228 531
z
" transform="scale(0.015625)"/>
       </defs>
       <use xlink:href="#DejaVuSans-30"/>
       <use xlink:href="#DejaVuSans-2e" transform="translate(63.623047 0)"/>
       <use xlink:href="#DejaVuSans-32" transform="translate(95.410156 0)"/>
      </g>
     </g>
    </g>
    <g id="xtick_3">
     <g id="line2d_5">
      <path d="M 182.757586 246.04
L 182.757586 26.88
" clip-path="url(#p99fe903b69)" style="fill: none; stroke: #b0b0b0; stroke-opacity: 0.2; stroke-width: 0.8; stroke-linecap: square"/>
     </g>
     <g id="line2d_6">
      <g>
       <use xlink:href="#m128079e89b" x="182.757586" y="246.04" style="stroke: #000000; stroke-width: 0.8"/>
      </g>
     </g>
     <g id="text_3">
      <!-- 0.4 -->
      <g transform="translate(174.806024 260.638438) scale(0.1 -0.1)">
       <defs>
        <path id="DejaVuSans-34" d="M 2419 4116
L 825 1625
L 2419 1625
L 2419 4116
z
M 2253 4666
L 3047 4666
L 3047 1625
L 3713 1625
L 3713 1100
L 3047 1100
L 3047 0
L 2419 0
L 2419 1100
L 313 1100
L 313 1709
L 2253 4666
z
" transform="scale(0.015625)"/>
       </defs>
       <use xlink:href="#DejaVuSans-30"/>
       <use xlink:href="#DejaVuSans-2e" transform="translate(63.623047 0)"/>
       <use xlink:href="#DejaVuSans-34" transform="translate(95.410156 0)"/>
      </g>
     </g>
    </g>
    <g id="xtick_4">
     <g id="line2d_7">
      <path d="M 242.582206 246.04
L 242.582206 26.88
" clip-path="url(#p99fe903b69)" style="fill: none; stroke: #b0b0b0; stroke-opacity: 0.2; stroke-width: 0.8; stroke-linecap: square"/>
     </g>
     <g id="line2d_8">
      <g>
       <use xlink:href="#m128079e89b" x="242.582206" y="246.04" style="stroke: #000000; stroke-width: 0.8"/>
      </g>
     </g>
     <g id="text_4">
      <!-- 0.6 -->
      <g transform="translate(234.630643 260.638438) scale(0.1 -0.1)">
       <defs>
        <path id="DejaVuSans-36" d="M 2113 2584
Q 1688 2584 1439 2293
Q 1191 2003 1191 1497
Q 1191 994 1439 701
Q 1688 409 2113 409
Q 2538 409 2786 701
Q 3034 994 3034 1497
Q 3034 2003 2786 2293
Q 2538 2584 2113 2584
z
M 3366 4563
L 3366 3988
Q 3128 4100 2886 4159
Q 2644 4219 2406 4219
Q 1781 4219 1451 3797
Q 1122 3375 1075 2522
Q 1259 2794 1537 2939
Q 1816 3084 2150 3084
Q 2853 3084 3261 2657
Q 3669 2231 3669 1497
Q 3669 778 3244 343
Q 2819 -91 2113 -91
Q 1303 -91 875 529
Q 447 1150 447 2328
Q 447 3434 972 4092
Q 1497 4750 2381 4750
Q 2619 4750 2861 4703
Q 3103 4656 3366 4563
z
" transform="scale(0.015625)"/>
       </defs>
       <use xlink:href="#DejaVuSans-30"/>
       <use xlink:href="#DejaVuSans-2e" transform="translate(63.623047 0)"/>
       <use xlink:href="#DejaVuSans-36" transform="translate(95.410156 0)"/>
      </g>
     </g>
    </g>
    <g id="xtick_5">
     <g id="line2d_9">
      <path d="M 302.406825 246.04
L 302.406825 26.88
" clip-path="url(#p99fe903b69)" style="fill: none; stroke: #b0b0b0; stroke-opacity: 0.2; stroke-width: 0.8; stroke-linecap: square"/>
     </g>
     <g id="line2d_10">
      <g>
       <use xlink:href="#m128079e89b" x="302.406825" y="246.04" style="stroke: #000000; stroke-width: 0.8"/>
      </g>
     </g>
     <g id="text_5">
      <!-- 0.8 -->
      <g transform="translate(294.455263 260.638438) scale(0.1 -0.1)">
       <defs>
        <path id="DejaVuSans-38" d="M 2034 2216
Q 1584 2216 1326 1975
Q 1069 1734 1069 1313
Q 1069 891 1326 650
Q 1584 409 2034 409
Q 2484 409 2743 651
Q 3003 894 3003 1313
Q 3003 1734 2745 1975
Q 2488 2216 2034 2216
z
M 1403 2484
Q 997 2584 770 2862
Q 544 3141 544 3541
Q 544 4100 942 4425
Q 1341 4750 2034 4750
Q 2731 4750 3128 4425
Q 3525 4100 3525 3541
Q 3525 3141 3298 2862
Q 3072 2584 2669 2484
Q 3125 2378 3379 2068
Q 3634 1759 3634 1313
Q 3634 634 3220 271
Q 2806 -91 2034 -91
Q 1263 -91 848 271
Q 434 634 434 1313
Q 434 1759 690 2068
Q 947 2378 1403 2484
z
M 1172 3481
Q 1172 3119 1398 2916
Q 1625 2713 2034 2713
Q 2441 2713 2670 2916
Q 2900 3119 2900 3481
Q 2900 3844 2670 4047
Q 2441 4250 2034 4250
Q 1625 4250 1398 4047
Q 1172 3844 1172 3481
z
" transform="scale(0.015625)"/>
       </defs>
       <use xlink:href="#DejaVuSans-30"/>
       <use xlink:href="#DejaVuSans-2e" transform="translate(63.623047 0)"/>
       <use xlink:href="#DejaVuSans-38" transform="translate(95.410156 0)"/>
      </g>
     </g>
    </g>
    <g id="xtick_6">
     <g id="line2d_11">
      <path d="M 362.231445 246.04
L 362.231445 26.88
" clip-path="url(#p99fe903b69)" style="fill: none; stroke: #b0b0b0; stroke-opacity: 0.2; stroke-width: 0.8; stroke-linecap: square"/>
     </g>
     <g id="line2d_12">
      <g>
       <use xlink:href="#m128079e89b" x="362.231445" y="246.04" style="stroke: #000000; stroke-width: 0.8"/>
      </g>
     </g>
     <g id="text_6">
      <!-- 1.0 -->
      <g transform="translate(354.279882 260.638438) scale(0.1 -0.1)">
       <defs>
        <path id="DejaVuSans-31" d="M 794 531
L 1825 531
L 1825 4091
L 703 3866
L 703 4441
L 1819 4666
L 2450 4666
L 2450 531
L 3481 531
L 3481 0
L 794 0
L 794 531
z
" transform="scale(0.015625)"/>
       </defs>
       <use xlink:href="#DejaVuSans-31"/>
       <use xlink:href="#DejaVuSans-2e" transform="translate(63.623047 0)"/>
       <use xlink:href="#DejaVuSans-30" transform="translate(95.410156 0)"/>
      </g>
     </g>
    </g>
    <g id="text_7">
     <!-- Fake probability -->
     <g transform="translate(174.700937 274.316562) scale(0.1 -0.1)">
      <defs>
       <path id="DejaVuSans-46" d="M 628 4666
L 3309 4666
L 3309 4134
L 1259 4134
L 1259 2759
L 3109 2759
L 3109 2228
L 1259 2228
L 1259 0
L 628 0
L 628 4666
z
" transform="scale(0.015625)"/>
       <path id="DejaVuSans-61" d="M 2194 1759
Q 1497 1759 1228 1600
Q 959 1441 959 1056
Q 959 750 1161 570
Q 1363 391 1709 391
Q 2188 391 2477 730
Q 2766 1069 2766 1631
L 2766 1759
L 2194 1759
z
M 3341 1997
L 3341 0
L 2766 0
L 2766 531
Q 2569 213 2275 61
Q 1981 -91 1556 -91
Q 1019 -91 701 211
Q 384 513 384 1019
Q 384 1609 779 1909
Q 1175 2209 1959 2209
L 2766 2209
L 2766 2266
Q 2766 2663 2505 2880
Q 2244 3097 1772 3097
Q 1472 3097 1187 3025
Q 903 2953 641 2809
L 641 3341
Q 956 3463 1253 3523
Q 1550 3584 1831 3584
Q 2591 3584 2966 3190
Q 3341 2797 3341 1997
z
" transform="scale(0.015625)"/>
       <path id="DejaVuSans-6b" d="M 581 4863
L 1159 4863
L 1159 1991
L 2875 3500
L 3609 3500
L 1753 1863
L 3688 0
L 2938 0
L 1159 1709
L 1159 0
L 581 0
L 581 4863
z
" transform="scale(0.015625)"/>
       <path id="DejaVuSans-65" d="M 3597 1894
L 3597 1613
L 953 1613
Q 991 1019 1311 708
Q 1631 397 2203 397
Q 2534 397 2845 478
Q 3156 559 3463 722
L 3463 178
Q 3153 47 2828 -22
Q 2503 -91 2169 -91
Q 1331 -91 842 396
Q 353 884 353 1716
Q 353 2575 817 3079
Q 1281 3584 2069 3584
Q 2775 3584 3186 3129
Q 3597 2675 3597 1894
z
M 3022 2063
Q 3016 2534 2758 2815
Q 2500 3097 2075 3097
Q 1594 3097 1305 2825
Q 1016 2553 972 2059
L 3022 2063
z
" transform="scale(0.015625)"/>
       <path id="DejaVuSans-20" transform="scale(0.015625)"/>
       <path id="DejaVuSans-70" d="M 1159 525
L 1159 -1331
L 581 -1331
L 581 3500
L 1159 3500
L 1159 2969
Q 1341 3281 1617 3432
Q 1894 3584 2278 3584
Q 2916 3584 3314 3078
Q 3713 2572 3713 1747
Q 3713 922 3314 415
Q 2916 -91 2278 -91
Q 1894 -91 1617 61
Q 1341 213 1159 525
z
M 3116 1747
Q 3116 2381 2855 2742
Q 2594 3103 2138 3103
Q 1681 3103 1420 2742
Q 1159 2381 1159 1747
Q 1159 1113 1420 752
Q 1681 391 2138 391
Q 2594 391 2855 752
Q 3116 1113 3116 1747
z
" transform="scale(0.015625)"/>
       <path id="DejaVuSans-72" d="M 2631 2963
Q 2534 3019 2420 3045
Q 2306 3072 2169 3072
Q 1681 3072 1420 2755
Q 1159 2438 1159 1844
L 1159 0
L 581 0
L 581 3500
L 1159 3500
L 1159 2956
Q 1341 3275 1631 3429
Q 1922 3584 2338 3584
Q 2397 3584 2469 3576
Q 2541 3569 2628 3553
L 2631 2963
z
" transform="scale(0.015625)"/>
       <path id="DejaVuSans-6f" d="M 1959 3097
Q 1497 3097 1228 2736
Q 959 2375 959 1747
Q 959 1119 1226 758
Q 1494 397 1959 397
Q 2419 397 2687 759
Q 2956 1122 2956 1747
Q 2956 2369 2687 2733
Q 2419 3097 1959 3097
z
M 1959 3584
Q 2709 3584 3137 3096
Q 3566 2609 3566 1747
Q 3566 888 3137 398
Q 2709 -91 1959 -91
Q 1206 -91 779 398
Q 353 888 353 1747
Q 353 2609 779 3096
Q 1206 3584 1959 3584
z
" transform="scale(0.015625)"/>
       <path id="DejaVuSans-62" d="M 3116 1747
Q 3116 2381 2855 2742
Q 2594 3103 2138 3103
Q 1681 3103 1420 2742
Q 1159 2381 1159 1747
Q 1159 1113 1420 752
Q 1681 391 2138 391
Q 2594 391 2855 752
Q 3116 1113 3116 1747
z
M 1159 2969
Q 1341 3281 1617 3432
Q 1894 3584 2278 3584
Q 2916 3584 3314 3078
Q 3713 2572 3713 1747
Q 3713 922 3314 415
Q 2916 -91 2278 -91
Q 1894 -91 1617 61
Q 1341 213 1159 525
L 1159 0
L 581 0
L 581 4863
L 1159 4863
L 1159 2969
z
" transform="scale(0.015625)"/>
       <path id="DejaVuSans-69" d="M 603 3500
L 1178 3500
L 1178 0
L 603 0
L 603 3500
z
M 603 4863
L 1178 4863
L 1178 4134
L 603 4134
L 603 4863
z
" transform="scale(0.015625)"/>
       <path id="DejaVuSans-6c" d="M 603 4863
L 1178 4863
L 1178 0
L 603 0
L 603 4863
z
" transform="scale(0.015625)"/>
       <path id="DejaVuSans-74" d="M 1172 4494
L 1172 3500
L 2356 3500
L 2356 3053
L 1172 3053
L 1172 1153
Q 1172 725 1289 603
Q 1406 481 1766 481
L 2356 481
L 2356 0
L 1766 0
Q 1100 0 847 248
Q 594 497 594 1153
L 594 3053
L 172 3053
L 172 3500
L 594 3500
L 594 4494
L 1172 4494
z
" transform="scale(0.015625)"/>
       <path id="DejaVuSans-79" d="M 2059 -325
Q 1816 -950 1584 -1140
Q 1353 -1331 966 -1331
L 506 -1331
L 506 -850
L 844 -850
Q 1081 -850 1212 -737
Q 1344 -625 1503 -206
L 1606 56
L 191 3500
L 800 3500
L 1894 763
L 2988 3500
L 3597 3500
L 2059 -325
z
" transform="scale(0.015625)"/>
      </defs>
      <use xlink:href="#DejaVuSans-46"/>
      <use xlink:href="#DejaVuSans-61" transform="translate(48.394531 0)"/>
      <use xlink:href="#DejaVuSans-6b" transform="translate(109.673828 0)"/>
      <use xlink:href="#DejaVuSans-65" transform="translate(163.958984 0)"/>
      <use xlink:href="#DejaVuSans-20" transform="translate(225.482422 0)"/>
      <use xlink:href="#DejaVuSans-70" transform="translate(257.269531 0)"/>
      <use xlink:href="#DejaVuSans-72" transform="translate(320.746094 0)"/>
      <use xlink:href="#DejaVuSans-6f" transform="translate(359.609375 0)"/>
      <use xlink:href="#DejaVuSans-62" transform="translate(420.791016 0)"/>
      <use xlink:href="#DejaVuSans-61" transform="translate(484.267578 0)"/>
      <use xlink:href="#DejaVuSans-62" transform="translate(545.546875 0)"/>
      <use xlink:href="#DejaVuSans-69" transform="translate(609.023438 0)"/>
      <use xlink:href="#DejaVuSans-6c" transform="translate(636.806641 0)"/>
      <use xlink:href="#DejaVuSans-69" transform="translate(664.589844 0)"/>
      <use xlink:href="#DejaVuSans-74" transform="translate(692.373047 0)"/>
      <use xlink:href="#DejaVuSans-79" transform="translate(731.582031 0)"/>
     </g>
    </g>
   </g>
   <g id="matplotlib.axis_2">
    <g id="ytick_1">
     <g id="line2d_13">
      <path d="M 54.02 246.04
L 374.46 246.04
" clip-path="url(#p99fe903b69)" style="fill: none; stroke: #b0b0b0; stroke-opacity: 0.2; stroke-width: 0.8; stroke-linecap: square"/>
     </g>
     <g id="line2d_14">
      <defs>
       <path id="me4c659d5be" d="M 0 0
L -3.5 0
" style="stroke: #000000; stroke-width: 0.8"/>
      </defs>
      <g>
       <use xlink:href="#me4c659d5be" x="54.02" y="246.04" style="stroke: #000000; stroke-width: 0.8"/>
      </g>
     </g>
     <g id="text_8">
      <!-- 0.0 -->
      <g transform="translate(31.116875 249.839219) scale(0.1 -0.1)">
       <use xlink:href="#DejaVuSans-30"/>
       <use xlink:href="#DejaVuSans-2e" transform="translate(63.623047 0)"/>
       <use xlink:href="#DejaVuSans-30" transform="translate(95.410156 0)"/>
      </g>
     </g>
    </g>
    <g id="ytick_2">
     <g id="line2d_15">
      <path d="M 54.02 219.280537
L 374.46 219.280537
" clip-path="url(#p99fe903b69)" style="fill: none; stroke: #b0b0b0; stroke-opacity: 0.2; stroke-width: 0.8; stroke-linecap: square"/>
     </g>
     <g id="line2d_16">
      <g>
       <use xlink:href="#me4c659d5be" x="54.02" y="219.280537" style="stroke: #000000; stroke-width: 0.8"/>
      </g>
     </g>
     <g id="text_9">
      <!-- 2.5 -->
      <g transform="translate(31.116875 223.079756) scale(0.1 -0.1)">
       <defs>
        <path id="DejaVuSans-35" d="M 691 4666
L 3169 4666
L 3169 4134
L 1269 4134
L 1269 2991
Q 1406 3038 1543 3061
Q 1681 3084 1819 3084
Q 2600 3084 3056 2656
Q 3513 2228 3513 1497
Q 3513 744 3044 326
Q 2575 -91 1722 -91
Q 1428 -91 1123 -41
Q 819 9 494 109
L 494 744
Q 775 591 1075 516
Q 1375 441 1709 441
Q 2250 441 2565 725
Q 2881 1009 2881 1497
Q 2881 1984 2565 2268
Q 2250 2553 1709 2553
Q 1456 2553 1204 2497
Q 953 2441 691 2322
L 691 4666
z
" transform="scale(0.015625)"/>
       </defs>
       <use xlink:href="#DejaVuSans-32"/>
       <use xlink:href="#DejaVuSans-2e" transform="translate(63.623047 0)"/>
       <use xlink:href="#DejaVuSans-35" transform="translate(95.410156 0)"/>
      </g>
     </g>
    </g>
    <g id="ytick_3">
     <g id="line2d_17">
      <path d="M 54.02 192.521074
L 374.46 192.521074
" clip-path="url(#p99fe903b69)" style="fill: none; stroke: #b0b0b0; stroke-opacity: 0.2; stroke-width: 0.8; stroke-linecap: square"/>
     </g>
     <g id="line2d_18">
      <g>
       <use xlink:href="#me4c659d5be" x="54.02" y="192.521074" style="stroke: #000000; stroke-width: 0.8"/>
      </g>
     </g>
     <g id="text_10">
      <!-- 5.0 -->
      <g transform="translate(31.116875 196.320293) scale(0.1 -0.1)">
       <use xlink:href="#DejaVuSans-35"/>
       <use xlink:href="#DejaVuSans-2e" transform="translate(63.623047 0)"/>
       <use xlink:href="#DejaVuSans-30" transform="translate(95.410156 0)"/>
      </g>
     </g>
    </g>
    <g id="ytick_4">
     <g id="line2d_19">
      <path d="M 54.02 165.761612
L 374.46 165.761612
" clip-path="url(#p99fe903b69)" style="fill: none; stroke: #b0b0b0; stroke-opacity: 0.2; stroke-width: 0.8; stroke-linecap: square"/>
     </g>
     <g id="line2d_20">
      <g>
       <use xlink:href="#me4c659d5be" x="54.02" y="165.761612" style="stroke: #000000; stroke-width: 0.8"/>
      </g>
     </g>
     <g id="text_11">
      <!-- 7.5 -->
      <g transform="translate(31.116875 169.56083) scale(0.1 -0.1)">
       <defs>
        <path id="DejaVuSans-37" d="M 525 4666
L 3525 4666
L 3525 4397
L 1831 0
L 1172 0
L 2766 4134
L 525 4134
L 525 4666
z
" transform="scale(0.015625)"/>
       </defs>
       <use xlink:href="#DejaVuSans-37"/>
       <use xlink:href="#DejaVuSans-2e" transform="translate(63.623047 0)"/>
       <use xlink:href="#DejaVuSans-35" transform="translate(95.410156 0)"/>
      </g>
     </g>
    </g>
    <g id="ytick_5">
     <g id="line2d_21">
      <path d="M 54.02 139.002149
L 374.46 139.002149
" clip-path="url(#p99fe903b69)" style="fill: none; stroke: #b0b0b0; stroke-opacity: 0.2; stroke-width: 0.8; stroke-linecap: square"/>
     </g>
     <g id="line2d_22">
      <g>
       <use xlink:href="#me4c659d5be" x="54.02" y="139.002149" style="stroke: #000000; stroke-width: 0.8"/>
      </g>
     </g>
     <g id="text_12">
      <!-- 10.0 -->
      <g transform="translate(24.754375 142.801368) scale(0.1 -0.1)">
       <use xlink:href="#DejaVuSans-31"/>
       <use xlink:href="#DejaVuSans-30" transform="translate(63.623047 0)"/>
       <use xlink:href="#DejaVuSans-2e" transform="translate(127.246094 0)"/>
       <use xlink:href="#DejaVuSans-30" transform="translate(159.033203 0)"/>
      </g>
     </g>
    </g>
    <g id="ytick_6">
     <g id="line2d_23">
      <path d="M 54.02 112.242686
L 374.46 112.242686
" clip-path="url(#p99fe903b69)" style="fill: none; stroke: #b0b0b0; stroke-opacity: 0.2; stroke-width: 0.8; stroke-linecap: square"/>
     </g>
     <g id="line2d_24">
      <g>
       <use xlink:href="#me4c659d5be" x="54.02" y="112.242686" style="stroke: #000000; stroke-width: 0.8"/>
      </g>
     </g>
     <g id="text_13">
      <!-- 12.5 -->
      <g transform="translate(24.754375 116.041905) scale(0.1 -0.1)">
       <use xlink:href="#DejaVuSans-31"/>
       <use xlink:href="#DejaVuSans-32" transform="translate(63.623047 0)"/>
       <use xlink:href="#DejaVuSans-2e" transform="translate(127.246094 0)"/>
       <use xlink:href="#DejaVuSans-35" transform="translate(159.033203 0)"/>
      </g>
     </g>
    </g>
    <g id="ytick_7">
     <g id="line2d_25">
      <path d="M 54.02 85.483223
L 374.46 85.483223
" clip-path="url(#p99fe903b69)" style="fill: none; stroke: #b0b0b0; stroke-opacity: 0.2; stroke-width: 0.8; stroke-linecap: square"/>
     </g>
     <g id="line2d_26">
      <g>
       <use xlink:href="#me4c659d5be" x="54.02" y="85.483223" style="stroke: #000000; stroke-width: 0.8"/>
      </g>
     </g>
     <g id="text_14">
      <!-- 15.0 -->
      <g transform="translate(24.754375 89.282442) scale(0.1 -0.1)">
       <use xlink:href="#DejaVuSans-31"/>
       <use xlink:href="#DejaVuSans-35" transform="translate(63.623047 0)"/>
       <use xlink:href="#DejaVuSans-2e" transform="translate(127.246094 0)"/>
       <use xlink:href="#DejaVuSans-30" transform="translate(159.033203 0)"/>
      </g>
     </g>
    </g>
    <g id="ytick_8">
     <g id="line2d_27">
      <path d="M 54.02 58.723761
L 374.46 58.723761
" clip-path="url(#p99fe903b69)" style="fill: none; stroke: #b0b0b0; stroke-opacity: 0.2; stroke-width: 0.8; stroke-linecap: square"/>
     </g>
     <g id="line2d_28">
      <g>
       <use xlink:href="#me4c659d5be" x="54.02" y="58.723761" style="stroke: #000000; stroke-width: 0.8"/>
      </g>
     </g>
     <g id="text_15">
      <!-- 17.5 -->
      <g transform="translate(24.754375 62.522979) scale(0.1 -0.1)">
       <use xlink:href="#DejaVuSans-31"/>
       <use xlink:href="#DejaVuSans-37" transform="translate(63.623047 0)"/>
       <use xlink:href="#DejaVuSans-2e" transform="translate(127.246094 0)"/>
       <use xlink:href="#DejaVuSans-35" transform="translate(159.033203 0)"/>
      </g>
     </g>
    </g>
    <g id="ytick_9">
     <g id="line2d_29">
      <path d="M 54.02 31.964298
L 374.46 31.964298
" clip-path="url(#p99fe903b69)" style="fill: none; stroke: #b0b0b0; stroke-opacity: 0.2; stroke-width: 0.8; stroke-linecap: square"/>
     </g>
     <g id="line2d_30">
      <g>
       <use xlink:href="#me4c659d5be" x="54.02" y="31.964298" style="stroke: #000000; stroke-width: 0.8"/>
      </g>
     </g>
     <g id="text_16">
      <!-- 20.0 -->
      <g transform="translate(24.754375 35.763517) scale(0.1 -0.1)">
       <use xlink:href="#DejaVuSans-32"/>
       <use xlink:href="#DejaVuSans-30" transform="translate(63.623047 0)"/>
       <use xlink:href="#DejaVuSans-2e" transform="translate(127.246094 0)"/>
       <use xlink:href="#DejaVuSans-30" transform="translate(159.033203 0)"/>
      </g>
     </g>
    </g>
    <g id="text_17">
     <!-- Density -->
     <g transform="translate(18.674688 155.468594) rotate(-90) scale(0.1 -0.1)">
      <defs>
       <path id="DejaVuSans-44" d="M 1259 4147
L 1259 519
L 2022 519
Q 2988 519 3436 956
Q 3884 1394 3884 2338
Q 3884 3275 3436 3711
Q 2988 4147 2022 4147
L 1259 4147
z
M 628 4666
L 1925 4666
Q 3281 4666 3915 4102
Q 4550 3538 4550 2338
Q 4550 1131 3912 565
Q 3275 0 1925 0
L 628 0
L 628 4666
z
" transform="scale(0.015625)"/>
       <path id="DejaVuSans-6e" d="M 3513 2113
L 3513 0
L 2938 0
L 2938 2094
Q 2938 2591 2744 2837
Q 2550 3084 2163 3084
Q 1697 3084 1428 2787
Q 1159 2491 1159 1978
L 1159 0
L 581 0
L 581 3500
L 1159 3500
L 1159 2956
Q 1366 3272 1645 3428
Q 1925 3584 2291 3584
Q 2894 3584 3203 3211
Q 3513 2838 3513 2113
z
" transform="scale(0.015625)"/>
       <path id="DejaVuSans-73" d="M 2834 3397
L 2834 2853
Q 2591 2978 2328 3040
Q 2066 3103 1784 3103
Q 1356 3103 1142 2972
Q 928 2841 928 2578
Q 928 2378 1081 2264
Q 1234 2150 1697 2047
L 1894 2003
Q 2506 1872 2764 1633
Q 3022 1394 3022 966
Q 3022 478 2636 193
Q 2250 -91 1575 -91
Q 1294 -91 989 -36
Q 684 19 347 128
L 347 722
Q 666 556 975 473
Q 1284 391 1588 391
Q 1994 391 2212 530
Q 2431 669 2431 922
Q 2431 1156 2273 1281
Q 2116 1406 1581 1522
L 1381 1569
Q 847 1681 609 1914
Q 372 2147 372 2553
Q 372 3047 722 3315
Q 1072 3584 1716 3584
Q 2034 3584 2315 3537
Q 2597 3491 2834 3397
z
" transform="scale(0.015625)"/>
      </defs>
      <use xlink:href="#DejaVuSans-44"/>
      <use xlink:href="#DejaVuSans-65" transform="translate(77.001953 0)"/>
      <use xlink:href="#DejaVuSans-6e" transform="translate(138.525391 0)"/>
      <use xlink:href="#DejaVuSans-73" transform="translate(201.904297 0)"/>
      <use xlink:href="#DejaVuSans-69" transform="translate(254.003906 0)"/>
      <use xlink:href="#DejaVuSans-74" transform="translate(281.787109 0)"/>
      <use xlink:href="#DejaVuSans-79" transform="translate(320.996094 0)"/>
     </g>
    </g>
   </g>
   <g id="line2d_31">
    <path d="M 212.669896 246.04
L 212.669896 26.88
" clip-path="url(#p99fe903b69)" style="fill: none; stroke-dasharray: 3.33,1.44; stroke-dashoffset: 0; stroke: #000000; stroke-width: 0.9"/>
   </g>
   <g id="patch_83">
    <path d="M 54.02 246.04
L 54.02 26.88
" style="fill: none; stroke: #000000; stroke-width: 0.8; stroke-linejoin: miter; stroke-linecap: square"/>
   </g>
   <g id="patch_84">
    <path d="M 374.46 246.04
L 374.46 26.88
" style="fill: none; stroke: #000000; stroke-width: 0.8; stroke-linejoin: miter; stroke-linecap: square"/>
   </g>
   <g id="patch_85">
    <path d="M 54.02 246.04
L 374.46 246.04
" style="fill: none; stroke: #000000; stroke-width: 0.8; stroke-linejoin: miter; stroke-linecap: square"/>
   </g>
   <g id="patch_86">
    <path d="M 54.02 26.88
L 374.46 26.88
" style="fill: none; stroke: #000000; stroke-width: 0.8; stroke-linejoin: miter; stroke-linecap: square"/>
   </g>
   <g id="text_18">
    <!-- AIDE (NTIRE) -->
    <g transform="translate(175.481875 20.88) scale(0.12 -0.12)">
     <defs>
      <path id="DejaVuSans-41" d="M 2188 4044
L 1331 1722
L 3047 1722
L 2188 4044
z
M 1831 4666
L 2547 4666
L 4325 0
L 3669 0
L 3244 1197
L 1141 1197
L 716 0
L 50 0
L 1831 4666
z
" transform="scale(0.015625)"/>
      <path id="DejaVuSans-49" d="M 628 4666
L 1259 4666
L 1259 0
L 628 0
L 628 4666
z
" transform="scale(0.015625)"/>
      <path id="DejaVuSans-45" d="M 628 4666
L 3578 4666
L 3578 4134
L 1259 4134
L 1259 2753
L 3481 2753
L 3481 2222
L 1259 2222
L 1259 531
L 3634 531
L 3634 0
L 628 0
L 628 4666
z
" transform="scale(0.015625)"/>
      <path id="DejaVuSans-28" d="M 1984 4856
Q 1566 4138 1362 3434
Q 1159 2731 1159 2009
Q 1159 1288 1364 580
Q 1569 -128 1984 -844
L 1484 -844
Q 1016 -109 783 600
Q 550 1309 550 2009
Q 550 2706 781 3412
Q 1013 4119 1484 4856
L 1984 4856
z
" transform="scale(0.015625)"/>
      <path id="DejaVuSans-4e" d="M 628 4666
L 1478 4666
L 3547 763
L 3547 4666
L 4159 4666
L 4159 0
L 3309 0
L 1241 3903
L 1241 0
L 628 0
L 628 4666
z
" transform="scale(0.015625)"/>
      <path id="DejaVuSans-54" d="M -19 4666
L 3928 4666
L 3928 4134
L 2272 4134
L 2272 0
L 1638 0
L 1638 4134
L -19 4134
L -19 4666
z
" transform="scale(0.015625)"/>
      <path id="DejaVuSans-52" d="M 2841 2188
Q 3044 2119 3236 1894
Q 3428 1669 3622 1275
L 4263 0
L 3584 0
L 2988 1197
Q 2756 1666 2539 1819
Q 2322 1972 1947 1972
L 1259 1972
L 1259 0
L 628 0
L 628 4666
L 2053 4666
Q 2853 4666 3247 4331
Q 3641 3997 3641 3322
Q 3641 2881 3436 2590
Q 3231 2300 2841 2188
z
M 1259 4147
L 1259 2491
L 2053 2491
Q 2509 2491 2742 2702
Q 2975 2913 2975 3322
Q 2975 3731 2742 3939
Q 2509 4147 2053 4147
L 1259 4147
z
" transform="scale(0.015625)"/>
      <path id="DejaVuSans-29" d="M 513 4856
L 1013 4856
Q 1481 4119 1714 3412
Q 1947 2706 1947 2009
Q 1947 1309 1714 600
Q 1481 -109 1013 -844
L 513 -844
Q 928 -128 1133 580
Q 1338 1288 1338 2009
Q 1338 2731 1133 3434
Q 928 4138 513 4856
z
" transform="scale(0.015625)"/>
     </defs>
     <use xlink:href="#DejaVuSans-41"/>
     <use xlink:href="#DejaVuSans-49" transform="translate(68.408203 0)"/>
     <use xlink:href="#DejaVuSans-44" transform="translate(97.900391 0)"/>
     <use xlink:href="#DejaVuSans-45" transform="translate(174.902344 0)"/>
     <use xlink:href="#DejaVuSans-20" transform="translate(238.085938 0)"/>
     <use xlink:href="#DejaVuSans-28" transform="translate(269.873047 0)"/>
     <use xlink:href="#DejaVuSans-4e" transform="translate(308.886719 0)"/>
     <use xlink:href="#DejaVuSans-54" transform="translate(383.691406 0)"/>
     <use xlink:href="#DejaVuSans-49" transform="translate(444.775391 0)"/>
     <use xlink:href="#DejaVuSans-52" transform="translate(474.267578 0)"/>
     <use xlink:href="#DejaVuSans-45" transform="translate(543.75 0)"/>
     <use xlink:href="#DejaVuSans-29" transform="translate(606.933594 0)"/>
    </g>
   </g>
  </g>
  <g id="axes_2">
   <g id="patch_87">
    <path d="M 388.76 246.04
L 709.2 246.04
L 709.2 26.88
L 388.76 26.88
z
" style="fill: #ffffff"/>
   </g>
   <g id="patch_88">
    <path d="M 403.325455 246.04
L 410.608182 246.04
L 410.608182 37.31619
L 403.325455 37.31619
z
" clip-path="url(#p2aa4177769)" style="fill: #276fbf; opacity: 0.55"/>
   </g>
   <g id="patch_89">
    <path d="M 410.608182 246.04
L 417.890909 246.04
L 417.890909 236.763386
L 410.608182 236.763386
z
" clip-path="url(#p2aa4177769)" style="fill: #276fbf; opacity: 0.55"/>
   </g>
   <g id="patch_90">
    <path d="M 417.890909 246.04
L 425.173636 246.04
L 425.173636 241.0449
L 417.890909 241.0449
z
" clip-path="url(#p2aa4177769)" style="fill: #276fbf; opacity: 0.55"/>
   </g>
   <g id="patch_91">
    <path d="M 425.173636 246.04
L 432.456364 246.04
L 432.456364 241.0449
L 425.173636 241.0449
z
" clip-path="url(#p2aa4177769)" style="fill: #276fbf; opacity: 0.55"/>
   </g>
   <g id="patch_92">
    <path d="M 432.456364 246.04
L 439.739091 246.04
L 439.739091 240.331315
L 432.456364 240.331315
z
" clip-path="url(#p2aa4177769)" style="fill: #276fbf; opacity: 0.55"/>
   </g>
   <g id="patch_93">
    <path d="M 439.739091 246.04
L 447.021818 246.04
L 447.021818 242.828864
L 439.739091 242.828864
z
" clip-path="url(#p2aa4177769)" style="fill: #276fbf; opacity: 0.55"/>
   </g>
   <g id="patch_94">
    <path d="M 447.021818 246.04
L 454.304545 246.04
L 454.304545 242.828864
L 447.021818 242.828864
z
" clip-path="url(#p2aa4177769)" style="fill: #276fbf; opacity: 0.55"/>
   </g>
   <g id="patch_95">
    <path d="M 454.304545 246.04
L 461.587273 246.04
L 461.587273 242.828864
L 454.304545 242.828864
z
" clip-path="url(#p2aa4177769)" style="fill: #276fbf; opacity: 0.55"/>
   </g>
   <g id="patch_96">
    <path d="M 461.587273 246.04
L 468.87 246.04
L 468.87 244.612829
L 461.587273 244.612829
z
" clip-path="url(#p2aa4177769)" style="fill: #276fbf; opacity: 0.55"/>
   </g>
   <g id="patch_97">
    <path d="M 468.87 246.04
L 476.152727 246.04
L 476.152727 243.54245
L 468.87 243.54245
z
" clip-path="url(#p2aa4177769)" style="fill: #276fbf; opacity: 0.55"/>
   </g>
   <g id="patch_98">
    <path d="M 476.152727 246.04
L 483.435455 246.04
L 483.435455 245.683207
L 476.152727 245.683207
z
" clip-path="url(#p2aa4177769)" style="fill: #276fbf; opacity: 0.55"/>
   </g>
   <g id="patch_99">
    <path d="M 483.435455 246.04
L 490.718182 246.04
L 490.718182 244.969621
L 483.435455 244.969621
z
" clip-path="url(#p2aa4177769)" style="fill: #276fbf; opacity: 0.55"/>
   </g>
   <g id="patch_100">
    <path d="M 490.718182 246.04
L 498.000909 246.04
L 498.000909 243.899243
L 490.718182 243.899243
z
" clip-path="url(#p2aa4177769)" style="fill: #276fbf; opacity: 0.55"/>
   </g>
   <g id="patch_101">
    <path d="M 498.000909 246.04
L 505.283636 246.04
L 505.283636 243.899243
L 498.000909 243.899243
z
" clip-path="url(#p2aa4177769)" style="fill: #276fbf; opacity: 0.55"/>
   </g>
   <g id="patch_102">
    <path d="M 505.283636 246.04
L 512.566364 246.04
L 512.566364 242.472072
L 505.283636 242.472072
z
" clip-path="url(#p2aa4177769)" style="fill: #276fbf; opacity: 0.55"/>
   </g>
   <g id="patch_103">
    <path d="M 512.566364 246.04
L 519.849091 246.04
L 519.849091 242.472072
L 512.566364 242.472072
z
" clip-path="url(#p2aa4177769)" style="fill: #276fbf; opacity: 0.55"/>
   </g>
   <g id="patch_104">
    <path d="M 519.849091 246.04
L 527.131818 246.04
L 527.131818 242.472072
L 519.849091 242.472072
z
" clip-path="url(#p2aa4177769)" style="fill: #276fbf; opacity: 0.55"/>
   </g>
   <g id="patch_105">
    <path d="M 527.131818 246.04
L 534.414545 246.04
L 534.414545 244.256036
L 527.131818 244.256036
z
" clip-path="url(#p2aa4177769)" style="fill: #276fbf; opacity: 0.55"/>
   </g>
   <g id="patch_106">
    <path d="M 534.414545 246.04
L 541.697273 246.04
L 541.697273 243.185657
L 534.414545 243.185657
z
" clip-path="url(#p2aa4177769)" style="fill: #276fbf; opacity: 0.55"/>
   </g>
   <g id="patch_107">
    <path d="M 541.697273 246.04
L 548.98 246.04
L 548.98 244.256036
L 541.697273 244.256036
z
" clip-path="url(#p2aa4177769)" style="fill: #276fbf; opacity: 0.55"/>
   </g>
   <g id="patch_108">
    <path d="M 548.98 246.04
L 556.262727 246.04
L 556.262727 243.54245
L 548.98 243.54245
z
" clip-path="url(#p2aa4177769)" style="fill: #276fbf; opacity: 0.55"/>
   </g>
   <g id="patch_109">
    <path d="M 556.262727 246.04
L 563.545455 246.04
L 563.545455 241.401693
L 556.262727 241.401693
z
" clip-path="url(#p2aa4177769)" style="fill: #276fbf; opacity: 0.55"/>
   </g>
   <g id="patch_110">
    <path d="M 563.545455 246.04
L 570.828182 246.04
L 570.828182 243.899243
L 563.545455 243.899243
z
" clip-path="url(#p2aa4177769)" style="fill: #276fbf; opacity: 0.55"/>
   </g>
   <g id="patch_111">
    <path d="M 570.828182 246.04
L 578.110909 246.04
L 578.110909 243.185657
L 570.828182 243.185657
z
" clip-path="url(#p2aa4177769)" style="fill: #276fbf; opacity: 0.55"/>
   </g>
   <g id="patch_112">
    <path d="M 578.110909 246.04
L 585.393636 246.04
L 585.393636 242.115279
L 578.110909 242.115279
z
" clip-path="url(#p2aa4177769)" style="fill: #276fbf; opacity: 0.55"/>
   </g>
   <g id="patch_113">
    <path d="M 585.393636 246.04
L 592.676364 246.04
L 592.676364 242.115279
L 585.393636 242.115279
z
" clip-path="url(#p2aa4177769)" style="fill: #276fbf; opacity: 0.55"/>
   </g>
   <g id="patch_114">
    <path d="M 592.676364 246.04
L 599.959091 246.04
L 599.959091 242.472072
L 592.676364 242.472072
z
" clip-path="url(#p2aa4177769)" style="fill: #276fbf; opacity: 0.55"/>
   </g>
   <g id="patch_115">
    <path d="M 599.959091 246.04
L 607.241818 246.04
L 607.241818 242.828864
L 599.959091 242.828864
z
" clip-path="url(#p2aa4177769)" style="fill: #276fbf; opacity: 0.55"/>
   </g>
   <g id="patch_116">
    <path d="M 607.241818 246.04
L 614.524545 246.04
L 614.524545 242.115279
L 607.241818 242.115279
z
" clip-path="url(#p2aa4177769)" style="fill: #276fbf; opacity: 0.55"/>
   </g>
   <g id="patch_117">
    <path d="M 614.524545 246.04
L 621.807273 246.04
L 621.807273 241.401693
L 614.524545 241.401693
z
" clip-path="url(#p2aa4177769)" style="fill: #276fbf; opacity: 0.55"/>
   </g>
   <g id="patch_118">
    <path d="M 621.807273 246.04
L 629.09 246.04
L 629.09 242.472072
L 621.807273 242.472072
z
" clip-path="url(#p2aa4177769)" style="fill: #276fbf; opacity: 0.55"/>
   </g>
   <g id="patch_119">
    <path d="M 629.09 246.04
L 636.372727 246.04
L 636.372727 242.472072
L 629.09 242.472072
z
" clip-path="url(#p2aa4177769)" style="fill: #276fbf; opacity: 0.55"/>
   </g>
   <g id="patch_120">
    <path d="M 636.372727 246.04
L 643.655455 246.04
L 643.655455 244.256036
L 636.372727 244.256036
z
" clip-path="url(#p2aa4177769)" style="fill: #276fbf; opacity: 0.55"/>
   </g>
   <g id="patch_121">
    <path d="M 643.655455 246.04
L 650.938182 246.04
L 650.938182 243.185657
L 643.655455 243.185657
z
" clip-path="url(#p2aa4177769)" style="fill: #276fbf; opacity: 0.55"/>
   </g>
   <g id="patch_122">
    <path d="M 650.938182 246.04
L 658.220909 246.04
L 658.220909 241.0449
L 650.938182 241.0449
z
" clip-path="url(#p2aa4177769)" style="fill: #276fbf; opacity: 0.55"/>
   </g>
   <g id="patch_123">
    <path d="M 658.220909 246.04
L 665.503636 246.04
L 665.503636 243.54245
L 658.220909 243.54245
z
" clip-path="url(#p2aa4177769)" style="fill: #276fbf; opacity: 0.55"/>
   </g>
   <g id="patch_124">
    <path d="M 665.503636 246.04
L 672.786364 246.04
L 672.786364 240.688107
L 665.503636 240.688107
z
" clip-path="url(#p2aa4177769)" style="fill: #276fbf; opacity: 0.55"/>
   </g>
   <g id="patch_125">
    <path d="M 672.786364 246.04
L 680.069091 246.04
L 680.069091 238.190558
L 672.786364 238.190558
z
" clip-path="url(#p2aa4177769)" style="fill: #276fbf; opacity: 0.55"/>
   </g>
   <g id="patch_126">
    <path d="M 680.069091 246.04
L 687.351818 246.04
L 687.351818 238.904143
L 680.069091 238.904143
z
" clip-path="url(#p2aa4177769)" style="fill: #276fbf; opacity: 0.55"/>
   </g>
   <g id="patch_127">
    <path d="M 687.351818 246.04
L 694.634545 246.04
L 694.634545 162.907269
L 687.351818 162.907269
z
" clip-path="url(#p2aa4177769)" style="fill: #276fbf; opacity: 0.55"/>
   </g>
   <g id="patch_128">
    <path d="M 403.325455 246.04
L 410.608182 246.04
L 410.608182 123.193482
L 403.325455 123.193482
z
" clip-path="url(#p2aa4177769)" style="fill: #c84630; opacity: 0.55"/>
   </g>
   <g id="patch_129">
    <path d="M 410.608182 246.04
L 417.890909 246.04
L 417.890909 241.758486
L 410.608182 241.758486
z
" clip-path="url(#p2aa4177769)" style="fill: #c84630; opacity: 0.55"/>
   </g>
   <g id="patch_130">
    <path d="M 417.890909 246.04
L 425.173636 246.04
L 425.173636 241.099791
L 417.890909 241.099791
z
" clip-path="url(#p2aa4177769)" style="fill: #c84630; opacity: 0.55"/>
   </g>
   <g id="patch_131">
    <path d="M 425.173636 246.04
L 432.456364 246.04
L 432.456364 242.087833
L 425.173636 242.087833
z
" clip-path="url(#p2aa4177769)" style="fill: #c84630; opacity: 0.55"/>
   </g>
   <g id="patch_132">
    <path d="M 432.456364 246.04
L 439.739091 246.04
L 439.739091 240.441097
L 432.456364 240.441097
z
" clip-path="url(#p2aa4177769)" style="fill: #c84630; opacity: 0.55"/>
   </g>
   <g id="patch_133">
    <path d="M 439.739091 246.04
L 447.021818 246.04
L 447.021818 243.734569
L 439.739091 243.734569
z
" clip-path="url(#p2aa4177769)" style="fill: #c84630; opacity: 0.55"/>
   </g>
   <g id="patch_134">
    <path d="M 447.021818 246.04
L 454.304545 246.04
L 454.304545 244.063917
L 447.021818 244.063917
z
" clip-path="url(#p2aa4177769)" style="fill: #c84630; opacity: 0.55"/>
   </g>
   <g id="patch_135">
    <path d="M 454.304545 246.04
L 461.587273 246.04
L 461.587273 243.405222
L 454.304545 243.405222
z
" clip-path="url(#p2aa4177769)" style="fill: #c84630; opacity: 0.55"/>
   </g>
   <g id="patch_136">
    <path d="M 461.587273 246.04
L 468.87 246.04
L 468.87 243.734569
L 461.587273 243.734569
z
" clip-path="url(#p2aa4177769)" style="fill: #c84630; opacity: 0.55"/>
   </g>
   <g id="patch_137">
    <path d="M 468.87 246.04
L 476.152727 246.04
L 476.152727 242.746528
L 468.87 242.746528
z
" clip-path="url(#p2aa4177769)" style="fill: #c84630; opacity: 0.55"/>
   </g>
   <g id="patch_138">
    <path d="M 476.152727 246.04
L 483.435455 246.04
L 483.435455 244.393264
L 476.152727 244.393264
z
" clip-path="url(#p2aa4177769)" style="fill: #c84630; opacity: 0.55"/>
   </g>
   <g id="patch_139">
    <path d="M 483.435455 246.04
L 490.718182 246.04
L 490.718182 244.393264
L 483.435455 244.393264
z
" clip-path="url(#p2aa4177769)" style="fill: #c84630; opacity: 0.55"/>
   </g>
   <g id="patch_140">
    <path d="M 490.718182 246.04
L 498.000909 246.04
L 498.000909 244.063917
L 490.718182 244.063917
z
" clip-path="url(#p2aa4177769)" style="fill: #c84630; opacity: 0.55"/>
   </g>
   <g id="patch_141">
    <path d="M 498.000909 246.04
L 505.283636 246.04
L 505.283636 243.405222
L 498.000909 243.405222
z
" clip-path="url(#p2aa4177769)" style="fill: #c84630; opacity: 0.55"/>
   </g>
   <g id="patch_142">
    <path d="M 505.283636 246.04
L 512.566364 246.04
L 512.566364 243.734569
L 505.283636 243.734569
z
" clip-path="url(#p2aa4177769)" style="fill: #c84630; opacity: 0.55"/>
   </g>
   <g id="patch_143">
    <path d="M 512.566364 246.04
L 519.849091 246.04
L 519.849091 243.405222
L 512.566364 243.405222
z
" clip-path="url(#p2aa4177769)" style="fill: #c84630; opacity: 0.55"/>
   </g>
   <g id="patch_144">
    <path d="M 519.849091 246.04
L 527.131818 246.04
L 527.131818 244.063917
L 519.849091 244.063917
z
" clip-path="url(#p2aa4177769)" style="fill: #c84630; opacity: 0.55"/>
   </g>
   <g id="patch_145">
    <path d="M 527.131818 246.04
L 534.414545 246.04
L 534.414545 243.405222
L 527.131818 243.405222
z
" clip-path="url(#p2aa4177769)" style="fill: #c84630; opacity: 0.55"/>
   </g>
   <g id="patch_146">
    <path d="M 534.414545 246.04
L 541.697273 246.04
L 541.697273 244.393264
L 534.414545 244.393264
z
" clip-path="url(#p2aa4177769)" style="fill: #c84630; opacity: 0.55"/>
   </g>
   <g id="patch_147">
    <path d="M 541.697273 246.04
L 548.98 246.04
L 548.98 244.393264
L 541.697273 244.393264
z
" clip-path="url(#p2aa4177769)" style="fill: #c84630; opacity: 0.55"/>
   </g>
   <g id="patch_148">
    <path d="M 548.98 246.04
L 556.262727 246.04
L 556.262727 243.405222
L 548.98 243.405222
z
" clip-path="url(#p2aa4177769)" style="fill: #c84630; opacity: 0.55"/>
   </g>
   <g id="patch_149">
    <path d="M 556.262727 246.04
L 563.545455 246.04
L 563.545455 241.429139
L 556.262727 241.429139
z
" clip-path="url(#p2aa4177769)" style="fill: #c84630; opacity: 0.55"/>
   </g>
   <g id="patch_150">
    <path d="M 563.545455 246.04
L 570.828182 246.04
L 570.828182 241.758486
L 563.545455 241.758486
z
" clip-path="url(#p2aa4177769)" style="fill: #c84630; opacity: 0.55"/>
   </g>
   <g id="patch_151">
    <path d="M 570.828182 246.04
L 578.110909 246.04
L 578.110909 242.746528
L 570.828182 242.746528
z
" clip-path="url(#p2aa4177769)" style="fill: #c84630; opacity: 0.55"/>
   </g>
   <g id="patch_152">
    <path d="M 578.110909 246.04
L 585.393636 246.04
L 585.393636 242.41718
L 578.110909 242.41718
z
" clip-path="url(#p2aa4177769)" style="fill: #c84630; opacity: 0.55"/>
   </g>
   <g id="patch_153">
    <path d="M 585.393636 246.04
L 592.676364 246.04
L 592.676364 241.099791
L 585.393636 241.099791
z
" clip-path="url(#p2aa4177769)" style="fill: #c84630; opacity: 0.55"/>
   </g>
   <g id="patch_154">
    <path d="M 592.676364 246.04
L 599.959091 246.04
L 599.959091 240.770444
L 592.676364 240.770444
z
" clip-path="url(#p2aa4177769)" style="fill: #c84630; opacity: 0.55"/>
   </g>
   <g id="patch_155">
    <path d="M 599.959091 246.04
L 607.241818 246.04
L 607.241818 243.734569
L 599.959091 243.734569
z
" clip-path="url(#p2aa4177769)" style="fill: #c84630; opacity: 0.55"/>
   </g>
   <g id="patch_156">
    <path d="M 607.241818 246.04
L 614.524545 246.04
L 614.524545 241.429139
L 607.241818 241.429139
z
" clip-path="url(#p2aa4177769)" style="fill: #c84630; opacity: 0.55"/>
   </g>
   <g id="patch_157">
    <path d="M 614.524545 246.04
L 621.807273 246.04
L 621.807273 242.41718
L 614.524545 242.41718
z
" clip-path="url(#p2aa4177769)" style="fill: #c84630; opacity: 0.55"/>
   </g>
   <g id="patch_158">
    <path d="M 621.807273 246.04
L 629.09 246.04
L 629.09 242.087833
L 621.807273 242.087833
z
" clip-path="url(#p2aa4177769)" style="fill: #c84630; opacity: 0.55"/>
   </g>
   <g id="patch_159">
    <path d="M 629.09 246.04
L 636.372727 246.04
L 636.372727 242.746528
L 629.09 242.746528
z
" clip-path="url(#p2aa4177769)" style="fill: #c84630; opacity: 0.55"/>
   </g>
   <g id="patch_160">
    <path d="M 636.372727 246.04
L 643.655455 246.04
L 643.655455 242.087833
L 636.372727 242.087833
z
" clip-path="url(#p2aa4177769)" style="fill: #c84630; opacity: 0.55"/>
   </g>
   <g id="patch_161">
    <path d="M 643.655455 246.04
L 650.938182 246.04
L 650.938182 241.099791
L 643.655455 241.099791
z
" clip-path="url(#p2aa4177769)" style="fill: #c84630; opacity: 0.55"/>
   </g>
   <g id="patch_162">
    <path d="M 650.938182 246.04
L 658.220909 246.04
L 658.220909 241.429139
L 650.938182 241.429139
z
" clip-path="url(#p2aa4177769)" style="fill: #c84630; opacity: 0.55"/>
   </g>
   <g id="patch_163">
    <path d="M 658.220909 246.04
L 665.503636 246.04
L 665.503636 241.758486
L 658.220909 241.758486
z
" clip-path="url(#p2aa4177769)" style="fill: #c84630; opacity: 0.55"/>
   </g>
   <g id="patch_164">
    <path d="M 665.503636 246.04
L 672.786364 246.04
L 672.786364 239.453055
L 665.503636 239.453055
z
" clip-path="url(#p2aa4177769)" style="fill: #c84630; opacity: 0.55"/>
   </g>
   <g id="patch_165">
    <path d="M 672.786364 246.04
L 680.069091 246.04
L 680.069091 238.465014
L 672.786364 238.465014
z
" clip-path="url(#p2aa4177769)" style="fill: #c84630; opacity: 0.55"/>
   </g>
   <g id="patch_166">
    <path d="M 680.069091 246.04
L 687.351818 246.04
L 687.351818 231.548722
L 680.069091 231.548722
z
" clip-path="url(#p2aa4177769)" style="fill: #c84630; opacity: 0.55"/>
   </g>
   <g id="patch_167">
    <path d="M 687.351818 246.04
L 694.634545 246.04
L 694.634545 85.647897
L 687.351818 85.647897
z
" clip-path="url(#p2aa4177769)" style="fill: #c84630; opacity: 0.55"/>
   </g>
   <g id="matplotlib.axis_3">
    <g id="xtick_7">
     <g id="line2d_32">
      <path d="M 403.325455 246.04
L 403.325455 26.88
" clip-path="url(#p2aa4177769)" style="fill: none; stroke: #b0b0b0; stroke-opacity: 0.2; stroke-width: 0.8; stroke-linecap: square"/>
     </g>
     <g id="line2d_33">
      <g>
       <use xlink:href="#m128079e89b" x="403.325455" y="246.04" style="stroke: #000000; stroke-width: 0.8"/>
      </g>
     </g>
     <g id="text_19">
      <!-- 0.0 -->
      <g transform="translate(395.373892 260.638438) scale(0.1 -0.1)">
       <use xlink:href="#DejaVuSans-30"/>
       <use xlink:href="#DejaVuSans-2e" transform="translate(63.623047 0)"/>
       <use xlink:href="#DejaVuSans-30" transform="translate(95.410156 0)"/>
      </g>
     </g>
    </g>
    <g id="xtick_8">
     <g id="line2d_34">
      <path d="M 461.587273 246.04
L 461.587273 26.88
" clip-path="url(#p2aa4177769)" style="fill: none; stroke: #b0b0b0; stroke-opacity: 0.2; stroke-width: 0.8; stroke-linecap: square"/>
     </g>
     <g id="line2d_35">
      <g>
       <use xlink:href="#m128079e89b" x="461.587273" y="246.04" style="stroke: #000000; stroke-width: 0.8"/>
      </g>
     </g>
     <g id="text_20">
      <!-- 0.2 -->
      <g transform="translate(453.63571 260.638438) scale(0.1 -0.1)">
       <use xlink:href="#DejaVuSans-30"/>
       <use xlink:href="#DejaVuSans-2e" transform="translate(63.623047 0)"/>
       <use xlink:href="#DejaVuSans-32" transform="translate(95.410156 0)"/>
      </g>
     </g>
    </g>
    <g id="xtick_9">
     <g id="line2d_36">
      <path d="M 519.849091 246.04
L 519.849091 26.88
" clip-path="url(#p2aa4177769)" style="fill: none; stroke: #b0b0b0; stroke-opacity: 0.2; stroke-width: 0.8; stroke-linecap: square"/>
     </g>
     <g id="line2d_37">
      <g>
       <use xlink:href="#m128079e89b" x="519.849091" y="246.04" style="stroke: #000000; stroke-width: 0.8"/>
      </g>
     </g>
     <g id="text_21">
      <!-- 0.4 -->
      <g transform="translate(511.897528 260.638438) scale(0.1 -0.1)">
       <use xlink:href="#DejaVuSans-30"/>
       <use xlink:href="#DejaVuSans-2e" transform="translate(63.623047 0)"/>
       <use xlink:href="#DejaVuSans-34" transform="translate(95.410156 0)"/>
      </g>
     </g>
    </g>
    <g id="xtick_10">
     <g id="line2d_38">
      <path d="M 578.110909 246.04
L 578.110909 26.88
" clip-path="url(#p2aa4177769)" style="fill: none; stroke: #b0b0b0; stroke-opacity: 0.2; stroke-width: 0.8; stroke-linecap: square"/>
     </g>
     <g id="line2d_39">
      <g>
       <use xlink:href="#m128079e89b" x="578.110909" y="246.04" style="stroke: #000000; stroke-width: 0.8"/>
      </g>
     </g>
     <g id="text_22">
      <!-- 0.6 -->
      <g transform="translate(570.159347 260.638438) scale(0.1 -0.1)">
       <use xlink:href="#DejaVuSans-30"/>
       <use xlink:href="#DejaVuSans-2e" transform="translate(63.623047 0)"/>
       <use xlink:href="#DejaVuSans-36" transform="translate(95.410156 0)"/>
      </g>
     </g>
    </g>
    <g id="xtick_11">
     <g id="line2d_40">
      <path d="M 636.372727 246.04
L 636.372727 26.88
" clip-path="url(#p2aa4177769)" style="fill: none; stroke: #b0b0b0; stroke-opacity: 0.2; stroke-width: 0.8; stroke-linecap: square"/>
     </g>
     <g id="line2d_41">
      <g>
       <use xlink:href="#m128079e89b" x="636.372727" y="246.04" style="stroke: #000000; stroke-width: 0.8"/>
      </g>
     </g>
     <g id="text_23">
      <!-- 0.8 -->
      <g transform="translate(628.421165 260.638438) scale(0.1 -0.1)">
       <use xlink:href="#DejaVuSans-30"/>
       <use xlink:href="#DejaVuSans-2e" transform="translate(63.623047 0)"/>
       <use xlink:href="#DejaVuSans-38" transform="translate(95.410156 0)"/>
      </g>
     </g>
    </g>
    <g id="xtick_12">
     <g id="line2d_42">
      <path d="M 694.634545 246.04
L 694.634545 26.88
" clip-path="url(#p2aa4177769)" style="fill: none; stroke: #b0b0b0; stroke-opacity: 0.2; stroke-width: 0.8; stroke-linecap: square"/>
     </g>
     <g id="line2d_43">
      <g>
       <use xlink:href="#m128079e89b" x="694.634545" y="246.04" style="stroke: #000000; stroke-width: 0.8"/>
      </g>
     </g>
     <g id="text_24">
      <!-- 1.0 -->
      <g transform="translate(686.682983 260.638438) scale(0.1 -0.1)">
       <use xlink:href="#DejaVuSans-31"/>
       <use xlink:href="#DejaVuSans-2e" transform="translate(63.623047 0)"/>
       <use xlink:href="#DejaVuSans-30" transform="translate(95.410156 0)"/>
      </g>
     </g>
    </g>
    <g id="text_25">
     <!-- Fake probability -->
     <g transform="translate(509.440937 274.316562) scale(0.1 -0.1)">
      <use xlink:href="#DejaVuSans-46"/>
      <use xlink:href="#DejaVuSans-61" transform="translate(48.394531 0)"/>
      <use xlink:href="#DejaVuSans-6b" transform="translate(109.673828 0)"/>
      <use xlink:href="#DejaVuSans-65" transform="translate(163.958984 0)"/>
      <use xlink:href="#DejaVuSans-20" transform="translate(225.482422 0)"/>
      <use xlink:href="#DejaVuSans-70" transform="translate(257.269531 0)"/>
      <use xlink:href="#DejaVuSans-72" transform="translate(320.746094 0)"/>
      <use xlink:href="#DejaVuSans-6f" transform="translate(359.609375 0)"/>
      <use xlink:href="#DejaVuSans-62" transform="translate(420.791016 0)"/>
      <use xlink:href="#DejaVuSans-61" transform="translate(484.267578 0)"/>
      <use xlink:href="#DejaVuSans-62" transform="translate(545.546875 0)"/>
      <use xlink:href="#DejaVuSans-69" transform="translate(609.023438 0)"/>
      <use xlink:href="#DejaVuSans-6c" transform="translate(636.806641 0)"/>
      <use xlink:href="#DejaVuSans-69" transform="translate(664.589844 0)"/>
      <use xlink:href="#DejaVuSans-74" transform="translate(692.373047 0)"/>
      <use xlink:href="#DejaVuSans-79" transform="translate(731.582031 0)"/>
     </g>
    </g>
   </g>
   <g id="matplotlib.axis_4">
    <g id="ytick_10">
     <g id="line2d_44">
      <path d="M 388.76 246.04
L 709.2 246.04
" clip-path="url(#p2aa4177769)" style="fill: none; stroke: #b0b0b0; stroke-opacity: 0.2; stroke-width: 0.8; stroke-linecap: square"/>
     </g>
     <g id="line2d_45">
      <g>
       <use xlink:href="#me4c659d5be" x="388.76" y="246.04" style="stroke: #000000; stroke-width: 0.8"/>
      </g>
     </g>
    </g>
    <g id="ytick_11">
     <g id="line2d_46">
      <path d="M 388.76 219.280537
L 709.2 219.280537
" clip-path="url(#p2aa4177769)" style="fill: none; stroke: #b0b0b0; stroke-opacity: 0.2; stroke-width: 0.8; stroke-linecap: square"/>
     </g>
     <g id="line2d_47">
      <g>
       <use xlink:href="#me4c659d5be" x="388.76" y="219.280537" style="stroke: #000000; stroke-width: 0.8"/>
      </g>
     </g>
    </g>
    <g id="ytick_12">
     <g id="line2d_48">
      <path d="M 388.76 192.521074
L 709.2 192.521074
" clip-path="url(#p2aa4177769)" style="fill: none; stroke: #b0b0b0; stroke-opacity: 0.2; stroke-width: 0.8; stroke-linecap: square"/>
     </g>
     <g id="line2d_49">
      <g>
       <use xlink:href="#me4c659d5be" x="388.76" y="192.521074" style="stroke: #000000; stroke-width: 0.8"/>
      </g>
     </g>
    </g>
    <g id="ytick_13">
     <g id="line2d_50">
      <path d="M 388.76 165.761612
L 709.2 165.761612
" clip-path="url(#p2aa4177769)" style="fill: none; stroke: #b0b0b0; stroke-opacity: 0.2; stroke-width: 0.8; stroke-linecap: square"/>
     </g>
     <g id="line2d_51">
      <g>
       <use xlink:href="#me4c659d5be" x="388.76" y="165.761612" style="stroke: #000000; stroke-width: 0.8"/>
      </g>
     </g>
    </g>
    <g id="ytick_14">
     <g id="line2d_52">
      <path d="M 388.76 139.002149
L 709.2 139.002149
" clip-path="url(#p2aa4177769)" style="fill: none; stroke: #b0b0b0; stroke-opacity: 0.2; stroke-width: 0.8; stroke-linecap: square"/>
     </g>
     <g id="line2d_53">
      <g>
       <use xlink:href="#me4c659d5be" x="388.76" y="139.002149" style="stroke: #000000; stroke-width: 0.8"/>
      </g>
     </g>
    </g>
    <g id="ytick_15">
     <g id="line2d_54">
      <path d="M 388.76 112.242686
L 709.2 112.242686
" clip-path="url(#p2aa4177769)" style="fill: none; stroke: #b0b0b0; stroke-opacity: 0.2; stroke-width: 0.8; stroke-linecap: square"/>
     </g>
     <g id="line2d_55">
      <g>
       <use xlink:href="#me4c659d5be" x="388.76" y="112.242686" style="stroke: #000000; stroke-width: 0.8"/>
      </g>
     </g>
    </g>
    <g id="ytick_16">
     <g id="line2d_56">
      <path d="M 388.76 85.483223
L 709.2 85.483223
" clip-path="url(#p2aa4177769)" style="fill: none; stroke: #b0b0b0; stroke-opacity: 0.2; stroke-width: 0.8; stroke-linecap: square"/>
     </g>
     <g id="line2d_57">
      <g>
       <use xlink:href="#me4c659d5be" x="388.76" y="85.483223" style="stroke: #000000; stroke-width: 0.8"/>
      </g>
     </g>
    </g>
    <g id="ytick_17">
     <g id="line2d_58">
      <path d="M 388.76 58.723761
L 709.2 58.723761
" clip-path="url(#p2aa4177769)" style="fill: none; stroke: #b0b0b0; stroke-opacity: 0.2; stroke-width: 0.8; stroke-linecap: square"/>
     </g>
     <g id="line2d_59">
      <g>
       <use xlink:href="#me4c659d5be" x="388.76" y="58.723761" style="stroke: #000000; stroke-width: 0.8"/>
      </g>
     </g>
    </g>
    <g id="ytick_18">
     <g id="line2d_60">
      <path d="M 388.76 31.964298
L 709.2 31.964298
" clip-path="url(#p2aa4177769)" style="fill: none; stroke: #b0b0b0; stroke-opacity: 0.2; stroke-width: 0.8; stroke-linecap: square"/>
     </g>
     <g id="line2d_61">
      <g>
       <use xlink:href="#me4c659d5be" x="388.76" y="31.964298" style="stroke: #000000; stroke-width: 0.8"/>
      </g>
     </g>
    </g>
   </g>
   <g id="line2d_62">
    <path d="M 548.98 246.04
L 548.98 26.88
" clip-path="url(#p2aa4177769)" style="fill: none; stroke-dasharray: 3.33,1.44; stroke-dashoffset: 0; stroke: #000000; stroke-width: 0.9"/>
   </g>
   <g id="patch_168">
    <path d="M 388.76 246.04
L 388.76 26.88
" style="fill: none; stroke: #000000; stroke-width: 0.8; stroke-linejoin: miter; stroke-linecap: square"/>
   </g>
   <g id="patch_169">
    <path d="M 709.2 246.04
L 709.2 26.88
" style="fill: none; stroke: #000000; stroke-width: 0.8; stroke-linejoin: miter; stroke-linecap: square"/>
   </g>
   <g id="patch_170">
    <path d="M 388.76 246.04
L 709.2 246.04
" style="fill: none; stroke: #000000; stroke-width: 0.8; stroke-linejoin: miter; stroke-linecap: square"/>
   </g>
   <g id="patch_171">
    <path d="M 388.76 26.88
L 709.2 26.88
" style="fill: none; stroke: #000000; stroke-width: 0.8; stroke-linejoin: miter; stroke-linecap: square"/>
   </g>
   <g id="text_26">
    <!-- SPAI (NTIRE) -->
    <g transform="translate(511.58875 20.88) scale(0.12 -0.12)">
     <defs>
      <path id="DejaVuSans-53" d="M 3425 4513
L 3425 3897
Q 3066 4069 2747 4153
Q 2428 4238 2131 4238
Q 1616 4238 1336 4038
Q 1056 3838 1056 3469
Q 1056 3159 1242 3001
Q 1428 2844 1947 2747
L 2328 2669
Q 3034 2534 3370 2195
Q 3706 1856 3706 1288
Q 3706 609 3251 259
Q 2797 -91 1919 -91
Q 1588 -91 1214 -16
Q 841 59 441 206
L 441 856
Q 825 641 1194 531
Q 1563 422 1919 422
Q 2459 422 2753 634
Q 3047 847 3047 1241
Q 3047 1584 2836 1778
Q 2625 1972 2144 2069
L 1759 2144
Q 1053 2284 737 2584
Q 422 2884 422 3419
Q 422 4038 858 4394
Q 1294 4750 2059 4750
Q 2388 4750 2728 4690
Q 3069 4631 3425 4513
z
" transform="scale(0.015625)"/>
      <path id="DejaVuSans-50" d="M 1259 4147
L 1259 2394
L 2053 2394
Q 2494 2394 2734 2622
Q 2975 2850 2975 3272
Q 2975 3691 2734 3919
Q 2494 4147 2053 4147
L 1259 4147
z
M 628 4666
L 2053 4666
Q 2838 4666 3239 4311
Q 3641 3956 3641 3272
Q 3641 2581 3239 2228
Q 2838 1875 2053 1875
L 1259 1875
L 1259 0
L 628 0
L 628 4666
z
" transform="scale(0.015625)"/>
     </defs>
     <use xlink:href="#DejaVuSans-53"/>
     <use xlink:href="#DejaVuSans-50" transform="translate(63.476562 0)"/>
     <use xlink:href="#DejaVuSans-41" transform="translate(117.404297 0)"/>
     <use xlink:href="#DejaVuSans-49" transform="translate(185.8125 0)"/>
     <use xlink:href="#DejaVuSans-20" transform="translate(215.304688 0)"/>
     <use xlink:href="#DejaVuSans-28" transform="translate(247.091797 0)"/>
     <use xlink:href="#DejaVuSans-4e" transform="translate(286.105469 0)"/>
     <use xlink:href="#DejaVuSans-54" transform="translate(360.910156 0)"/>
     <use xlink:href="#DejaVuSans-49" transform="translate(421.994141 0)"/>
     <use xlink:href="#DejaVuSans-52" transform="translate(451.486328 0)"/>
     <use xlink:href="#DejaVuSans-45" transform="translate(520.96875 0)"/>
     <use xlink:href="#DejaVuSans-29" transform="translate(584.152344 0)"/>
    </g>
   </g>
   <g id="legend_1">
    <g id="patch_172">
     <path d="M 650.970312 43.478438
L 670.970312 43.478438
L 670.970312 36.478438
L 650.970312 36.478438
z
" style="fill: #276fbf; opacity: 0.55"/>
    </g>
    <g id="text_27">
     <!-- real -->
     <g transform="translate(678.970312 43.478438) scale(0.1 -0.1)">
      <use xlink:href="#DejaVuSans-72"/>
      <use xlink:href="#DejaVuSans-65" transform="translate(38.863281 0)"/>
      <use xlink:href="#DejaVuSans-61" transform="translate(100.386719 0)"/>
      <use xlink:href="#DejaVuSans-6c" transform="translate(161.666016 0)"/>
     </g>
    </g>
    <g id="patch_173">
     <path d="M 650.970312 58.156563
L 670.970312 58.156563
L 670.970312 51.156563
L 650.970312 51.156563
z
" style="fill: #c84630; opacity: 0.55"/>
    </g>
    <g id="text_28">
     <!-- fake -->
     <g transform="translate(678.970312 58.156563) scale(0.1 -0.1)">
      <defs>
       <path id="DejaVuSans-66" d="M 2375 4863
L 2375 4384
L 1825 4384
Q 1516 4384 1395 4259
Q 1275 4134 1275 3809
L 1275 3500
L 2222 3500
L 2222 3053
L 1275 3053
L 1275 0
L 697 0
L 697 3053
L 147 3053
L 147 3500
L 697 3500
L 697 3744
Q 697 4328 969 4595
Q 1241 4863 1831 4863
L 2375 4863
z
" transform="scale(0.015625)"/>
      </defs>
      <use xlink:href="#DejaVuSans-66"/>
      <use xlink:href="#DejaVuSans-61" transform="translate(35.205078 0)"/>
      <use xlink:href="#DejaVuSans-6b" transform="translate(96.484375 0)"/>
      <use xlink:href="#DejaVuSans-65" transform="translate(150.769531 0)"/>
     </g>
    </g>
   </g>
  </g>
 </g>
 <defs>
  <clipPath id="p99fe903b69">
   <rect x="54.02" y="26.88" width="320.44" height="219.16"/>
  </clipPath>
  <clipPath id="p2aa4177769">
   <rect x="388.76" y="26.88" width="320.44" height="219.16"/>
  </clipPath>
 </defs>
</svg>
