<?xml version="1.0" encoding="utf-8" standalone="no"?>
<!DOCTYPE svg PUBLIC "-//W3C//DTD SVG 1.1//EN"
  "http://www.w3.org/Graphics/SVG/1.1/DTD/svg11.dtd">
<svg xmlns:xlink="http://www.w3.org/1999/xlink" width="396pt" height="324pt" viewBox="0 0 396 324" xmlns="http://www.w3.org/2000/svg" version="1.1">
 <metadata>
  <rdf:RDF xmlns:dc="http://purl.org/dc/elements/1.1/" xmlns:cc="http://creativecommons.org/ns#" xmlns:rdf="http://www.w3.org/1999/02/22-rdf-syntax-ns#">
   <cc:Work>
    <dc:type rdf:resource="http://purl.org/dc/dcmitype/StillImage"/>
    <dc:date>2026-05-09T18:39:20.816640</dc:date>
    <dc:format>image/svg+xml</dc:format>
    <dc:creator>
     <cc:Agent>
      <dc:title>Matplotlib v3.10.9, https://matplotlib.org/</dc:title>
     </cc:Agent>
    </dc:creator>
   </cc:Work>
  </rdf:RDF>
 </metadata>
 <defs>
  <style type="text/css">*{stroke-linejoin: round; stroke-linecap: butt}</style>
 </defs>
 <g id="figure_1">
  <g id="patch_1">
   <path d="M 0 324
L 396 324
L 396 0
L 0 0
z
" style="fill: #ffffff"/>
  </g>
  <g id="axes_1">
   <g id="patch_2">
    <path d="M 47.72 282.04
L 385.2 282.04
L 385.2 26.88
L 47.72 26.88
z
" style="fill: #ffffff"/>
   </g>
   <g id="matplotlib.axis_1">
    <g id="xtick_1">
     <g id="line2d_1">
      <path d="M 63.06 282.04
L 63.06 26.88
" clip-path="url(#pa69e693fc2)" style="fill: none; stroke: #b0b0b0; stroke-opacity: 0.2; stroke-width: 0.8; stroke-linecap: square"/>
     </g>
     <g id="line2d_2">
      <defs>
       <path id="m69e3a43507" d="M 0 0
L 0 3.5
" style="stroke: #000000; stroke-width: 0.8"/>
      </defs>
      <g>
       <use xlink:href="#m69e3a43507" x="63.06" y="282.04" style="stroke: #000000; stroke-width: 0.8"/>
      </g>
     </g>
     <g id="text_1">
      <!-- 0.0 -->
      <g transform="translate(55.108438 296.638438) scale(0.1 -0.1)">
       <defs>
        <path id="DejaVuSans-30" d="M 2034 4250
Q 1547 4250 1301 3770
Q 1056 3291 1056 2328
Q 1056 1369 1301 889
Q 1547 409 2034 409
Q 2525 409 2770 889
Q 3016 1369 3016 2328
Q 3016 3291 2770 3770
Q 2525 4250 2034 4250
z
M 2034 4750
Q 2819 4750 3233 4129
Q 3647 3509 3647 2328
Q 3647 1150 3233 529
Q 2819 -91 2034 -91
Q 1250 -91 836 529
Q 422 1150 422 2328
Q 422 3509 836 4129
Q 1250 4750 2034 4750
z
" transform="scale(0.015625)"/>
        <path id="DejaVuSans-2e" d="M 684 794
L 1344 794
L 1344 0
L 684 0
L 684 794
z
" transform="scale(0.015625)"/>
       </defs>
       <use xlink:href="#DejaVuSans-30"/>
       <use xlink:href="#DejaVuSans-2e" transform="translate(63.623047 0)"/>
       <use xlink:href="#DejaVuSans-30" transform="translate(95.410156 0)"/>
      </g>
     </g>
    </g>
    <g id="xtick_2">
     <g id="line2d_3">
      <path d="M 124.42 282.04
L 124.42 26.88
" clip-path="url(#pa69e693fc2)" style="fill: none; stroke: #b0b0b0; stroke-opacity: 0.2; stroke-width: 0.8; stroke-linecap: square"/>
     </g>
     <g id="line2d_4">
      <g>
       <use xlink:href="#m69e3a43507" x="124.42" y="282.04" style="stroke: #000000; stroke-width: 0.8"/>
      </g>
     </g>
     <g id="text_2">
      <!-- 0.2 -->
      <g transform="translate(116.468438 296.638438) scale(0.1 -0.1)">
       <defs>
        <path id="DejaVuSans-32" d="M 1228 531
L 3431 531
L 3431 0
L 469 0
L 469 531
Q 828 903 1448 1529
Q 2069 2156 2228 2338
Q 2531 2678 2651 2914
Q 2772 3150 2772 3378
Q 2772 3750 2511 3984
Q 2250 4219 1831 4219
Q 1534 4219 1204 4116
Q 875 4013 500 3803
L 500 4441
Q 881 4594 1212 4672
Q 1544 4750 1819 4750
Q 2544 4750 2975 4387
Q 3406 4025 3406 3419
Q 3406 3131 3298 2873
Q 3191 2616 2906 2266
Q 2828 2175 2409 1742
Q 1991 1309 1228 531
z
" transform="scale(0.015625)"/>
       </defs>
       <use xlink:href="#DejaVuSans-30"/>
       <use xlink:href="#DejaVuSans-2e" transform="translate(63.623047 0)"/>
       <use xlink:href="#DejaVuSans-32" transform="translate(95.410156 0)"/>
      </g>
     </g>
    </g>
    <g id="xtick_3">
     <g id="line2d_5">
      <path d="M 185.78 282.04
L 185.78 26.88
" clip-path="url(#pa69e693fc2)" style="fill: none; stroke: #b0b0b0; stroke-opacity: 0.2; stroke-width: 0.8; stroke-linecap: square"/>
     </g>
     <g id="line2d_6">
      <g>
       <use xlink:href="#m69e3a43507" x="185.78" y="282.04" style="stroke: #000000; stroke-width: 0.8"/>
      </g>
     </g>
     <g id="text_3">
      <!-- 0.4 -->
      <g transform="translate(177.828438 296.638438) scale(0.1 -0.1)">
       <defs>
        <path id="DejaVuSans-34" d="M 2419 4116
L 825 1625
L 2419 1625
L 2419 4116
z
M 2253 4666
L 3047 4666
L 3047 1625
L 3713 1625
L 3713 1100
L 3047 1100
L 3047 0
L 2419 0
L 2419 1100
L 313 1100
L 313 1709
L 2253 4666
z
" transform="scale(0.015625)"/>
       </defs>
       <use xlink:href="#DejaVuSans-30"/>
       <use xlink:href="#DejaVuSans-2e" transform="translate(63.623047 0)"/>
       <use xlink:href="#DejaVuSans-34" transform="translate(95.410156 0)"/>
      </g>
     </g>
    </g>
    <g id="xtick_4">
     <g id="line2d_7">
      <path d="M 247.14 282.04
L 247.14 26.88
" clip-path="url(#pa69e693fc2)" style="fill: none; stroke: #b0b0b0; stroke-opacity: 0.2; stroke-width: 0.8; stroke-linecap: square"/>
     </g>
     <g id="line2d_8">
      <g>
       <use xlink:href="#m69e3a43507" x="247.14" y="282.04" style="stroke: #000000; stroke-width: 0.8"/>
      </g>
     </g>
     <g id="text_4">
      <!-- 0.6 -->
      <g transform="translate(239.188438 296.638438) scale(0.1 -0.1)">
       <defs>
        <path id="DejaVuSans-36" d="M 2113 2584
Q 1688 2584 1439 2293
Q 1191 2003 1191 1497
Q 1191 994 1439 701
Q 1688 409 2113 409
Q 2538 409 2786 701
Q 3034 994 3034 1497
Q 3034 2003 2786 2293
Q 2538 2584 2113 2584
z
M 3366 4563
L 3366 3988
Q 3128 4100 2886 4159
Q 2644 4219 2406 4219
Q 1781 4219 1451 3797
Q 1122 3375 1075 2522
Q 1259 2794 1537 2939
Q 1816 3084 2150 3084
Q 2853 3084 3261 2657
Q 3669 2231 3669 1497
Q 3669 778 3244 343
Q 2819 -91 2113 -91
Q 1303 -91 875 529
Q 447 1150 447 2328
Q 447 3434 972 4092
Q 1497 4750 2381 4750
Q 2619 4750 2861 4703
Q 3103 4656 3366 4563
z
" transform="scale(0.015625)"/>
       </defs>
       <use xlink:href="#DejaVuSans-30"/>
       <use xlink:href="#DejaVuSans-2e" transform="translate(63.623047 0)"/>
       <use xlink:href="#DejaVuSans-36" transform="translate(95.410156 0)"/>
      </g>
     </g>
    </g>
    <g id="xtick_5">
     <g id="line2d_9">
      <path d="M 308.5 282.04
L 308.5 26.88
" clip-path="url(#pa69e693fc2)" style="fill: none; stroke: #b0b0b0; stroke-opacity: 0.2; stroke-width: 0.8; stroke-linecap: square"/>
     </g>
     <g id="line2d_10">
      <g>
       <use xlink:href="#m69e3a43507" x="308.5" y="282.04" style="stroke: #000000; stroke-width: 0.8"/>
      </g>
     </g>
     <g id="text_5">
      <!-- 0.8 -->
      <g transform="translate(300.548438 296.638438) scale(0.1 -0.1)">
       <defs>
        <path id="DejaVuSans-38" d="M 2034 2216
Q 1584 2216 1326 1975
Q 1069 1734 1069 1313
Q 1069 891 1326 650
Q 1584 409 2034 409
Q 2484 409 2743 651
Q 3003 894 3003 1313
Q 3003 1734 2745 1975
Q 2488 2216 2034 2216
z
M 1403 2484
Q 997 2584 770 2862
Q 544 3141 544 3541
Q 544 4100 942 4425
Q 1341 4750 2034 4750
Q 2731 4750 3128 4425
Q 3525 4100 3525 3541
Q 3525 3141 3298 2862
Q 3072 2584 2669 2484
Q 3125 2378 3379 2068
Q 3634 1759 3634 1313
Q 3634 634 3220 271
Q 2806 -91 2034 -91
Q 1263 -91 848 271
Q 434 634 434 1313
Q 434 1759 690 2068
Q 947 2378 1403 2484
z
M 1172 3481
Q 1172 3119 1398 2916
Q 1625 2713 2034 2713
Q 2441 2713 2670 2916
Q 2900 3119 2900 3481
Q 2900 3844 2670 4047
Q 2441 4250 2034 4250
Q 1625 4250 1398 4047
Q 1172 3844 1172 3481
z
" transform="scale(0.015625)"/>
       </defs>
       <use xlink:href="#DejaVuSans-30"/>
       <use xlink:href="#DejaVuSans-2e" transform="translate(63.623047 0)"/>
       <use xlink:href="#DejaVuSans-38" transform="translate(95.410156 0)"/>
      </g>
     </g>
    </g>
    <g id="xtick_6">
     <g id="line2d_11">
      <path d="M 369.86 282.04
L 369.86 26.88
" clip-path="url(#pa69e693fc2)" style="fill: none; stroke: #b0b0b0; stroke-opacity: 0.2; stroke-width: 0.8; stroke-linecap: square"/>
     </g>
     <g id="line2d_12">
      <g>
       <use xlink:href="#m69e3a43507" x="369.86" y="282.04" style="stroke: #000000; stroke-width: 0.8"/>
      </g>
     </g>
     <g id="text_6">
      <!-- 1.0 -->
      <g transform="translate(361.908438 296.638438) scale(0.1 -0.1)">
       <defs>
        <path id="DejaVuSans-31" d="M 794 531
L 1825 531
L 1825 4091
L 703 3866
L 703 4441
L 1819 4666
L 2450 4666
L 2450 531
L 3481 531
L 3481 0
L 794 0
L 794 531
z
" transform="scale(0.015625)"/>
       </defs>
       <use xlink:href="#DejaVuSans-31"/>
       <use xlink:href="#DejaVuSans-2e" transform="translate(63.623047 0)"/>
       <use xlink:href="#DejaVuSans-30" transform="translate(95.410156 0)"/>
      </g>
     </g>
    </g>
    <g id="text_7">
     <!-- False positive rate -->
     <g transform="translate(170.959219 310.316563) scale(0.1 -0.1)">
      <defs>
       <path id="DejaVuSans-46" d="M 628 4666
L 3309 4666
L 3309 4134
L 1259 4134
L 1259 2759
L 3109 2759
L 3109 2228
L 1259 2228
L 1259 0
L 628 0
L 628 4666
z
" transform="scale(0.015625)"/>
       <path id="DejaVuSans-61" d="M 2194 1759
Q 1497 1759 1228 1600
Q 959 1441 959 1056
Q 959 750 1161 570
Q 1363 391 1709 391
Q 2188 391 2477 730
Q 2766 1069 2766 1631
L 2766 1759
L 2194 1759
z
M 3341 1997
L 3341 0
L 2766 0
L 2766 531
Q 2569 213 2275 61
Q 1981 -91 1556 -91
Q 1019 -91 701 211
Q 384 513 384 1019
Q 384 1609 779 1909
Q 1175 2209 1959 2209
L 2766 2209
L 2766 2266
Q 2766 2663 2505 2880
Q 2244 3097 1772 3097
Q 1472 3097 1187 3025
Q 903 2953 641 2809
L 641 3341
Q 956 3463 1253 3523
Q 1550 3584 1831 3584
Q 2591 3584 2966 3190
Q 3341 2797 3341 1997
z
" transform="scale(0.015625)"/>
       <path id="DejaVuSans-6c" d="M 603 4863
L 1178 4863
L 1178 0
L 603 0
L 603 4863
z
" transform="scale(0.015625)"/>
       <path id="DejaVuSans-73" d="M 2834 3397
L 2834 2853
Q 2591 2978 2328 3040
Q 2066 3103 1784 3103
Q 1356 3103 1142 2972
Q 928 2841 928 2578
Q 928 2378 1081 2264
Q 1234 2150 1697 2047
L 1894 2003
Q 2506 1872 2764 1633
Q 3022 1394 3022 966
Q 3022 478 2636 193
Q 2250 -91 1575 -91
Q 1294 -91 989 -36
Q 684 19 347 128
L 347 722
Q 666 556 975 473
Q 1284 391 1588 391
Q 1994 391 2212 530
Q 2431 669 2431 922
Q 2431 1156 2273 1281
Q 2116 1406 1581 1522
L 1381 1569
Q 847 1681 609 1914
Q 372 2147 372 2553
Q 372 3047 722 3315
Q 1072 3584 1716 3584
Q 2034 3584 2315 3537
Q 2597 3491 2834 3397
z
" transform="scale(0.015625)"/>
       <path id="DejaVuSans-65" d="M 3597 1894
L 3597 1613
L 953 1613
Q 991 1019 1311 708
Q 1631 397 2203 397
Q 2534 397 2845 478
Q 3156 559 3463 722
L 3463 178
Q 3153 47 2828 -22
Q 2503 -91 2169 -91
Q 1331 -91 842 396
Q 353 884 353 1716
Q 353 2575 817 3079
Q 1281 3584 2069 3584
Q 2775 3584 3186 3129
Q 3597 2675 3597 1894
z
M 3022 2063
Q 3016 2534 2758 2815
Q 2500 3097 2075 3097
Q 1594 3097 1305 2825
Q 1016 2553 972 2059
L 3022 2063
z
" transform="scale(0.015625)"/>
       <path id="DejaVuSans-20" transform="scale(0.015625)"/>
       <path id="DejaVuSans-70" d="M 1159 525
L 1159 -1331
L 581 -1331
L 581 3500
L 1159 3500
L 1159 2969
Q 1341 3281 1617 3432
Q 1894 3584 2278 3584
Q 2916 3584 3314 3078
Q 3713 2572 3713 1747
Q 3713 922 3314 415
Q 2916 -91 2278 -91
Q 1894 -91 1617 61
Q 1341 213 1159 525
z
M 3116 1747
Q 3116 2381 2855 2742
Q 2594 3103 2138 3103
Q 1681 3103 1420 2742
Q 1159 2381 1159 1747
Q 1159 1113 1420 752
Q 1681 391 2138 391
Q 2594 391 2855 752
Q 3116 1113 3116 1747
z
" transform="scale(0.015625)"/>
       <path id="DejaVuSans-6f" d="M 1959 3097
Q 1497 3097 1228 2736
Q 959 2375 959 1747
Q 959 1119 1226 758
Q 1494 397 1959 397
Q 2419 397 2687 759
Q 2956 1122 2956 1747
Q 2956 2369 2687 2733
Q 2419 3097 1959 3097
z
M 1959 3584
Q 2709 3584 3137 3096
Q 3566 2609 3566 1747
Q 3566 888 3137 398
Q 2709 -91 1959 -91
Q 1206 -91 779 398
Q 353 888 353 1747
Q 353 2609 779 3096
Q 1206 3584 1959 3584
z
" transform="scale(0.015625)"/>
       <path id="DejaVuSans-69" d="M 603 3500
L 1178 3500
L 1178 0
L 603 0
L 603 3500
z
M 603 4863
L 1178 4863
L 1178 4134
L 603 4134
L 603 4863
z
" transform="scale(0.015625)"/>
       <path id="DejaVuSans-74" d="M 1172 4494
L 1172 3500
L 2356 3500
L 2356 3053
L 1172 3053
L 1172 1153
Q 1172 725 1289 603
Q 1406 481 1766 481
L 2356 481
L 2356 0
L 1766 0
Q 1100 0 847 248
Q 594 497 594 1153
L 594 3053
L 172 3053
L 172 3500
L 594 3500
L 594 4494
L 1172 4494
z
" transform="scale(0.015625)"/>
       <path id="DejaVuSans-76" d="M 191 3500
L 800 3500
L 1894 563
L 2988 3500
L 3597 3500
L 2284 0
L 1503 0
L 191 3500
z
" transform="scale(0.015625)"/>
       <path id="DejaVuSans-72" d="M 2631 2963
Q 2534 3019 2420 3045
Q 2306 3072 2169 3072
Q 1681 3072 1420 2755
Q 1159 2438 1159 1844
L 1159 0
L 581 0
L 581 3500
L 1159 3500
L 1159 2956
Q 1341 3275 1631 3429
Q 1922 3584 2338 3584
Q 2397 3584 2469 3576
Q 2541 3569 2628 3553
L 2631 2963
z
" transform="scale(0.015625)"/>
      </defs>
      <use xlink:href="#DejaVuSans-46"/>
      <use xlink:href="#DejaVuSans-61" transform="translate(48.394531 0)"/>
      <use xlink:href="#DejaVuSans-6c" transform="translate(109.673828 0)"/>
      <use xlink:href="#DejaVuSans-73" transform="translate(137.457031 0)"/>
      <use xlink:href="#DejaVuSans-65" transform="translate(189.556641 0)"/>
      <use xlink:href="#DejaVuSans-20" transform="translate(251.080078 0)"/>
      <use xlink:href="#DejaVuSans-70" transform="translate(282.867188 0)"/>
      <use xlink:href="#DejaVuSans-6f" transform="translate(346.34375 0)"/>
      <use xlink:href="#DejaVuSans-73" transform="translate(407.525391 0)"/>
      <use xlink:href="#DejaVuSans-69" transform="translate(459.625 0)"/>
      <use xlink:href="#DejaVuSans-74" transform="translate(487.408203 0)"/>
      <use xlink:href="#DejaVuSans-69" transform="translate(526.617188 0)"/>
      <use xlink:href="#DejaVuSans-76" transform="translate(554.400391 0)"/>
      <use xlink:href="#DejaVuSans-65" transform="translate(613.580078 0)"/>
      <use xlink:href="#DejaVuSans-20" transform="translate(675.103516 0)"/>
      <use xlink:href="#DejaVuSans-72" transform="translate(706.890625 0)"/>
      <use xlink:href="#DejaVuSans-61" transform="translate(748.003906 0)"/>
      <use xlink:href="#DejaVuSans-74" transform="translate(809.283203 0)"/>
      <use xlink:href="#DejaVuSans-65" transform="translate(848.492188 0)"/>
     </g>
    </g>
   </g>
   <g id="matplotlib.axis_2">
    <g id="ytick_1">
     <g id="line2d_13">
      <path d="M 47.72 270.441818
L 385.2 270.441818
" clip-path="url(#pa69e693fc2)" style="fill: none; stroke: #b0b0b0; stroke-opacity: 0.2; stroke-width: 0.8; stroke-linecap: square"/>
     </g>
     <g id="line2d_14">
      <defs>
       <path id="m3bb8630fa0" d="M 0 0
L -3.5 0
" style="stroke: #000000; stroke-width: 0.8"/>
      </defs>
      <g>
       <use xlink:href="#m3bb8630fa0" x="47.72" y="270.441818" style="stroke: #000000; stroke-width: 0.8"/>
      </g>
     </g>
     <g id="text_8">
      <!-- 0.0 -->
      <g transform="translate(24.816875 274.241037) scale(0.1 -0.1)">
       <use xlink:href="#DejaVuSans-30"/>
       <use xlink:href="#DejaVuSans-2e" transform="translate(63.623047 0)"/>
       <use xlink:href="#DejaVuSans-30" transform="translate(95.410156 0)"/>
      </g>
     </g>
    </g>
    <g id="ytick_2">
     <g id="line2d_15">
      <path d="M 47.72 224.049091
L 385.2 224.049091
" clip-path="url(#pa69e693fc2)" style="fill: none; stroke: #b0b0b0; stroke-opacity: 0.2; stroke-width: 0.8; stroke-linecap: square"/>
     </g>
     <g id="line2d_16">
      <g>
       <use xlink:href="#m3bb8630fa0" x="47.72" y="224.049091" style="stroke: #000000; stroke-width: 0.8"/>
      </g>
     </g>
     <g id="text_9">
      <!-- 0.2 -->
      <g transform="translate(24.816875 227.84831) scale(0.1 -0.1)">
       <use xlink:href="#DejaVuSans-30"/>
       <use xlink:href="#DejaVuSans-2e" transform="translate(63.623047 0)"/>
       <use xlink:href="#DejaVuSans-32" transform="translate(95.410156 0)"/>
      </g>
     </g>
    </g>
    <g id="ytick_3">
     <g id="line2d_17">
      <path d="M 47.72 177.656364
L 385.2 177.656364
" clip-path="url(#pa69e693fc2)" style="fill: none; stroke: #b0b0b0; stroke-opacity: 0.2; stroke-width: 0.8; stroke-linecap: square"/>
     </g>
     <g id="line2d_18">
      <g>
       <use xlink:href="#m3bb8630fa0" x="47.72" y="177.656364" style="stroke: #000000; stroke-width: 0.8"/>
      </g>
     </g>
     <g id="text_10">
      <!-- 0.4 -->
      <g transform="translate(24.816875 181.455582) scale(0.1 -0.1)">
       <use xlink:href="#DejaVuSans-30"/>
       <use xlink:href="#DejaVuSans-2e" transform="translate(63.623047 0)"/>
       <use xlink:href="#DejaVuSans-34" transform="translate(95.410156 0)"/>
      </g>
     </g>
    </g>
    <g id="ytick_4">
     <g id="line2d_19">
      <path d="M 47.72 131.263636
L 385.2 131.263636
" clip-path="url(#pa69e693fc2)" style="fill: none; stroke: #b0b0b0; stroke-opacity: 0.2; stroke-width: 0.8; stroke-linecap: square"/>
     </g>
     <g id="line2d_20">
      <g>
       <use xlink:href="#m3bb8630fa0" x="47.72" y="131.263636" style="stroke: #000000; stroke-width: 0.8"/>
      </g>
     </g>
     <g id="text_11">
      <!-- 0.6 -->
      <g transform="translate(24.816875 135.062855) scale(0.1 -0.1)">
       <use xlink:href="#DejaVuSans-30"/>
       <use xlink:href="#DejaVuSans-2e" transform="translate(63.623047 0)"/>
       <use xlink:href="#DejaVuSans-36" transform="translate(95.410156 0)"/>
      </g>
     </g>
    </g>
    <g id="ytick_5">
     <g id="line2d_21">
      <path d="M 47.72 84.870909
L 385.2 84.870909
" clip-path="url(#pa69e693fc2)" style="fill: none; stroke: #b0b0b0; stroke-opacity: 0.2; stroke-width: 0.8; stroke-linecap: square"/>
     </g>
     <g id="line2d_22">
      <g>
       <use xlink:href="#m3bb8630fa0" x="47.72" y="84.870909" style="stroke: #000000; stroke-width: 0.8"/>
      </g>
     </g>
     <g id="text_12">
      <!-- 0.8 -->
      <g transform="translate(24.816875 88.670128) scale(0.1 -0.1)">
       <use xlink:href="#DejaVuSans-30"/>
       <use xlink:href="#DejaVuSans-2e" transform="translate(63.623047 0)"/>
       <use xlink:href="#DejaVuSans-38" transform="translate(95.410156 0)"/>
      </g>
     </g>
    </g>
    <g id="ytick_6">
     <g id="line2d_23">
      <path d="M 47.72 38.478182
L 385.2 38.478182
" clip-path="url(#pa69e693fc2)" style="fill: none; stroke: #b0b0b0; stroke-opacity: 0.2; stroke-width: 0.8; stroke-linecap: square"/>
     </g>
     <g id="line2d_24">
      <g>
       <use xlink:href="#m3bb8630fa0" x="47.72" y="38.478182" style="stroke: #000000; stroke-width: 0.8"/>
      </g>
     </g>
     <g id="text_13">
      <!-- 1.0 -->
      <g transform="translate(24.816875 42.277401) scale(0.1 -0.1)">
       <use xlink:href="#DejaVuSans-31"/>
       <use xlink:href="#DejaVuSans-2e" transform="translate(63.623047 0)"/>
       <use xlink:href="#DejaVuSans-30" transform="translate(95.410156 0)"/>
      </g>
     </g>
    </g>
    <g id="text_14">
     <!-- True positive rate -->
     <g transform="translate(18.737188 198.024062) rotate(-90) scale(0.1 -0.1)">
      <defs>
       <path id="DejaVuSans-54" d="M -19 4666
L 3928 4666
L 3928 4134
L 2272 4134
L 2272 0
L 1638 0
L 1638 4134
L -19 4134
L -19 4666
z
" transform="scale(0.015625)"/>
       <path id="DejaVuSans-75" d="M 544 1381
L 544 3500
L 1119 3500
L 1119 1403
Q 1119 906 1312 657
Q 1506 409 1894 409
Q 2359 409 2629 706
Q 2900 1003 2900 1516
L 2900 3500
L 3475 3500
L 3475 0
L 2900 0
L 2900 538
Q 2691 219 2414 64
Q 2138 -91 1772 -91
Q 1169 -91 856 284
Q 544 659 544 1381
z
M 1991 3584
L 1991 3584
z
" transform="scale(0.015625)"/>
      </defs>
      <use xlink:href="#DejaVuSans-54"/>
      <use xlink:href="#DejaVuSans-72" transform="translate(46.333984 0)"/>
      <use xlink:href="#DejaVuSans-75" transform="translate(87.447266 0)"/>
      <use xlink:href="#DejaVuSans-65" transform="translate(150.826172 0)"/>
      <use xlink:href="#DejaVuSans-20" transform="translate(212.349609 0)"/>
      <use xlink:href="#DejaVuSans-70" transform="translate(244.136719 0)"/>
      <use xlink:href="#DejaVuSans-6f" transform="translate(307.613281 0)"/>
      <use xlink:href="#DejaVuSans-73" transform="translate(368.794922 0)"/>
      <use xlink:href="#DejaVuSans-69" transform="translate(420.894531 0)"/>
      <use xlink:href="#DejaVuSans-74" transform="translate(448.677734 0)"/>
      <use xlink:href="#DejaVuSans-69" transform="translate(487.886719 0)"/>
      <use xlink:href="#DejaVuSans-76" transform="translate(515.669922 0)"/>
      <use xlink:href="#DejaVuSans-65" transform="translate(574.849609 0)"/>
      <use xlink:href="#DejaVuSans-20" transform="translate(636.373047 0)"/>
      <use xlink:href="#DejaVuSans-72" transform="translate(668.160156 0)"/>
      <use xlink:href="#DejaVuSans-61" transform="translate(709.273438 0)"/>
      <use xlink:href="#DejaVuSans-74" transform="translate(770.552734 0)"/>
      <use xlink:href="#DejaVuSans-65" transform="translate(809.761719 0)"/>
     </g>
    </g>
   </g>
   <g id="line2d_25">
    <path d="M 63.06 270.441818
L 63.06 268.835916
L 63.315667 268.657483
L 64.082667 267.586881
L 64.082667 267.05158
L 65.105333 265.445678
L 65.616667 264.910378
L 65.872333 263.839776
L 66.639333 263.482909
L 66.895 262.412308
L 67.150667 262.055441
L 67.150667 260.449538
L 68.173333 259.735804
L 68.940333 259.378937
L 68.940333 259.200503
L 69.451667 258.308336
L 71.752667 257.773035
L 72.519667 257.059301
L 73.286667 256.524
L 73.286667 256.345566
L 73.542333 256.167133
L 74.053667 254.918098
L 74.565 254.02593
L 74.565 252.955329
L 75.076333 251.52786
L 75.332 250.992559
L 75.843333 249.386657
L 76.610333 248.49449
L 77.633 247.959189
L 78.144333 247.423888
L 78.911333 246.888587
L 80.445333 245.461119
L 80.701 244.747385
L 80.956667 243.676783
L 80.956667 242.963049
L 81.212333 242.427748
L 82.490667 241.357147
L 82.746333 241.357147
L 83.257667 240.643413
L 83.513333 239.751245
L 84.536 238.859077
L 85.303 238.50221
L 85.558667 237.966909
L 86.325667 235.468839
L 86.325667 234.576671
L 87.348333 234.576671
L 88.115333 233.50607
L 88.115333 233.149203
L 90.160667 230.472699
L 90.416333 229.402098
L 91.183333 229.045231
L 91.950333 228.50993
L 92.206 228.50993
L 92.206 227.617762
L 93.228667 227.260895
L 93.484333 226.547161
L 93.484333 226.01186
L 93.74 225.654993
L 94.507 225.119692
L 94.762667 224.584392
L 95.274 224.049091
L 95.274 223.51379
L 96.041 223.335357
L 96.552333 222.443189
L 97.063667 222.086322
L 97.575 221.907888
L 98.597667 221.729455
L 98.597667 221.194154
L 98.853333 221.01572
L 98.853333 218.51765
L 99.364667 218.339217
L 99.876 217.625483
L 101.41 217.090182
L 102.688333 217.090182
L 103.199667 216.01958
L 103.455333 214.770545
L 104.478 214.413678
L 104.733667 213.878378
L 104.733667 213.343077
L 104.989333 212.629343
L 105.245 212.629343
L 106.267667 211.737175
L 106.779 210.666573
L 107.290333 209.952839
L 107.290333 209.417538
L 108.057333 208.882238
L 108.313 208.346937
L 109.335667 207.811636
L 109.847 207.097902
L 110.614 206.562601
L 110.869667 206.027301
L 110.869667 205.670434
L 111.125333 205.670434
L 111.381 204.956699
L 111.892333 204.064531
L 111.892333 203.172364
L 112.148 203.172364
L 112.148 202.815497
L 112.403667 202.280196
L 112.403667 201.388028
L 113.170667 200.852727
L 113.682 199.960559
L 113.682 199.246825
L 114.193333 198.711524
L 114.960333 198.533091
L 114.960333 197.46249
L 115.471667 197.284056
L 116.494333 197.105622
L 117.517 196.391888
L 117.772667 195.856587
L 118.028333 195.321287
L 119.562333 194.785986
L 120.329333 193.893818
L 121.352 193.180084
L 121.607667 192.644783
L 122.119 192.46635
L 122.119 192.287916
L 122.374667 192.109483
L 123.141667 190.50358
L 124.42 188.897678
L 124.675667 188.362378
L 125.442667 187.827077
L 125.442667 186.756476
L 125.954 185.507441
L 126.721 184.258406
L 126.721 183.901538
L 127.232333 183.187804
L 127.743667 183.187804
L 130.044667 181.581902
L 130.300333 181.225035
L 130.300333 180.154434
L 130.556 179.976
L 131.323 179.797566
L 131.323 179.619133
L 131.834333 178.370098
L 133.368333 177.656364
L 134.135333 176.942629
L 134.902333 176.585762
L 135.669333 176.050462
L 135.925 175.693594
L 136.436333 175.336727
L 136.436333 174.801427
L 136.692 174.801427
L 136.692 174.622993
L 136.947667 174.444559
L 138.737333 173.730825
L 138.993 173.373958
L 140.015667 173.195524
L 140.271333 173.017091
L 140.527 172.660224
L 141.294 171.94649
L 142.061 171.94649
L 142.572333 171.232755
L 142.828 170.519021
L 143.850667 169.805287
L 144.362 169.805287
L 145.129 168.913119
L 145.384667 168.913119
L 146.151667 168.556252
L 146.407333 167.664084
L 147.174333 167.664084
L 148.452667 167.307217
L 148.708333 167.128783
L 151.009333 165.879748
L 151.520667 165.344448
L 151.776333 165.344448
L 151.776333 164.095413
L 152.032 163.381678
L 152.032 162.311077
L 153.310333 161.95421
L 153.821667 161.597343
L 154.333 160.883608
L 155.1 160.705175
L 155.1 160.526741
L 155.611333 160.169874
L 155.867 160.169874
L 155.867 159.991441
L 156.122667 159.099273
L 156.634 158.742406
L 156.889667 158.742406
L 157.912333 158.028671
L 158.423667 157.850238
L 159.446333 156.601203
L 159.702 156.422769
L 160.469 156.244336
L 160.469 155.709035
L 160.724667 155.530601
L 162.258667 154.816867
L 162.77 154.281566
L 162.77 153.389399
L 163.281333 153.210965
L 163.537 152.318797
L 163.792667 152.140364
L 165.838 151.605063
L 166.349333 151.248196
L 166.605 150.712895
L 166.605 150.177594
L 166.860667 149.999161
L 166.860667 149.642294
L 167.372 149.642294
L 167.883333 149.285427
L 168.650333 148.571692
L 169.161667 148.393259
L 169.673 148.393259
L 169.673 147.679524
L 170.184333 147.322657
L 170.695667 146.787357
L 171.462667 146.608923
L 171.974 146.608923
L 172.741 146.43049
L 173.252333 146.43049
L 174.275 146.073622
L 174.275 145.895189
L 174.786333 145.538322
L 175.042 145.003021
L 176.064667 144.289287
L 176.064667 144.110853
L 176.320333 143.753986
L 176.831667 143.397119
L 177.598667 143.397119
L 178.11 143.040252
L 179.132667 142.683385
L 179.388333 142.326517
L 179.388333 141.96965
L 179.899667 141.43435
L 180.922333 141.255916
L 180.922333 139.650014
L 181.433667 139.293147
L 182.712 139.293147
L 183.223333 138.93628
L 183.479 138.93628
L 185.78 137.330378
L 186.035667 137.330378
L 186.291333 136.97351
L 187.569667 136.43821
L 187.825333 135.902909
L 188.336667 135.902909
L 188.848 135.367608
L 188.848 135.189175
L 189.359333 135.010741
L 189.870667 135.010741
L 191.149 134.653874
L 191.660333 134.653874
L 193.961333 134.475441
L 194.472667 134.118573
L 194.728333 133.583273
L 195.239667 133.047972
L 196.262333 132.869538
L 198.307667 131.977371
L 198.563333 131.977371
L 199.841667 131.263636
L 200.353 130.728336
L 200.353 130.193035
L 200.864333 129.836168
L 201.631333 129.657734
L 202.142667 129.122434
L 203.165333 128.230266
L 203.165333 127.694965
L 204.188 127.159664
L 204.443667 126.624364
L 206.233333 126.089063
L 208.023 126.089063
L 208.79 125.910629
L 209.301333 125.553762
L 211.346667 124.661594
L 211.858 124.304727
L 212.625 123.590993
L 213.647667 122.877259
L 214.414667 122.163524
L 215.181667 121.806657
L 215.948667 120.91449
L 216.715667 120.736056
L 217.227 119.665455
L 217.994 119.665455
L 218.505333 119.487021
L 218.761 119.130154
L 220.039333 119.130154
L 220.550667 118.773287
L 222.851667 117.881119
L 222.851667 117.345818
L 223.618667 116.988951
L 224.385667 116.988951
L 225.408333 116.275217
L 225.919667 116.275217
L 226.175333 115.91835
L 226.175333 115.561483
L 226.686667 115.204615
L 227.709333 114.312448
L 228.987667 113.95558
L 231.544333 112.706545
L 232.567 112.706545
L 232.567 112.528112
L 233.334 112.171245
L 233.334 111.635944
L 234.356667 111.279077
L 235.379333 111.100643
L 235.379333 110.92221
L 235.890667 110.743776
L 236.146333 110.030042
L 237.169 109.137874
L 238.447333 108.959441
L 239.214333 108.42414
L 239.47 108.42414
L 239.981333 108.067273
L 241.004 107.710406
L 241.515333 106.639804
L 244.839 105.92607
L 245.861667 105.569203
L 246.628667 104.677035
L 247.651333 104.320168
L 247.907 103.963301
L 248.674 103.606434
L 249.952333 103.249566
L 249.952333 103.071133
L 250.719333 102.535832
L 250.975 102.178965
L 251.230667 101.465231
L 251.742 101.286797
L 252.764667 100.216196
L 254.298667 99.502462
L 255.832667 98.967161
L 257.111 98.253427
L 257.878 97.718126
L 257.878 96.469091
L 258.389333 95.93379
L 258.900667 94.506322
L 261.201667 94.506322
L 261.713 93.792587
L 264.269667 92.008252
L 265.548 91.472951
L 266.059333 90.93765
L 267.337667 89.331748
L 267.849 89.153315
L 268.360333 88.796448
L 269.127333 88.082713
L 269.638667 87.368979
L 271.428333 86.833678
L 271.939667 85.94151
L 272.962333 84.692476
L 273.729333 83.978741
L 275.007667 83.265007
L 276.797333 82.729706
L 277.82 82.015972
L 278.331333 80.945371
L 280.376667 80.231636
L 280.632333 79.517902
L 281.399333 78.268867
L 281.655 77.555133
L 282.422 77.019832
L 282.933333 76.841399
L 284.211667 75.949231
L 286.001333 75.770797
L 287.024 75.235497
L 288.302333 74.700196
L 288.302333 74.164895
L 288.813667 72.737427
L 290.347667 72.380559
L 290.603333 71.309958
L 292.648667 71.131524
L 292.904333 70.239357
L 294.182667 69.525622
L 295.716667 68.990322
L 296.995 68.811888
L 302.875333 65.956951
L 305.176333 65.778517
L 307.733 63.994182
L 309.522667 63.458881
L 310.801 62.566713
L 311.568 62.209846
L 313.102 60.960811
L 313.869 60.603944
L 314.891667 59.711776
L 318.982333 59.176476
L 320.260667 58.641175
L 321.027667 58.105874
L 323.073 57.749007
L 325.885333 56.678406
L 328.186333 55.250937
L 329.720333 54.537203
L 331.51 53.288168
L 333.044 52.752867
L 333.811 51.860699
L 335.345 51.503832
L 337.390333 50.611664
L 338.157333 50.433231
L 339.18 50.076364
L 343.782 49.005762
L 345.060333 48.292028
L 346.338667 47.221427
L 347.872667 46.329259
L 349.662333 45.437091
L 350.429333 44.188056
L 350.429333 43.831189
L 352.986 43.652755
L 354.264333 43.295888
L 354.775667 42.582154
L 355.287 42.225287
L 356.054 41.511552
L 357.843667 40.619385
L 359.889 40.440951
L 359.889 40.262517
L 363.212667 40.262517
L 364.235333 39.90565
L 364.746667 39.727217
L 365.513667 39.727217
L 365.769333 39.37035
L 366.280667 39.37035
L 366.280667 39.013483
L 366.536333 39.013483
L 366.536333 38.835049
L 366.792 38.835049
L 367.047667 38.656615
L 367.559 38.656615
L 368.070333 38.478182
L 369.86 38.478182
L 369.86 38.478182
" clip-path="url(#pa69e693fc2)" style="fill: none; stroke: #276fbf; stroke-width: 2; stroke-linecap: square"/>
   </g>
   <g id="line2d_26">
    <path d="M 63.06 270.441818
L 76.610333 245.99642
L 77.888667 242.606182
L 77.888667 240.821846
L 78.911333 238.859077
L 78.911333 238.323776
L 79.167 237.610042
L 79.422667 237.253175
L 79.934 236.896308
L 79.934 234.398238
L 80.189667 234.398238
L 80.445333 234.041371
L 80.701 234.041371
L 80.701 233.684503
L 80.956667 233.50607
L 81.468 233.327636
L 81.468 232.792336
L 81.723667 232.792336
L 81.723667 232.435469
L 81.979333 232.257035
L 82.235 232.257035
L 82.235 232.078601
L 83.257667 232.078601
L 83.257667 231.721734
L 83.769 231.721734
L 83.769 231.008
L 84.024667 230.829566
L 84.280333 230.829566
L 84.280333 230.472699
L 84.791667 229.758965
L 85.303 229.758965
L 85.558667 229.580531
L 85.558667 227.439329
L 85.814333 227.439329
L 85.814333 225.654993
L 86.07 225.476559
L 86.07 224.227524
L 86.581333 224.227524
L 86.581333 223.692224
L 86.837 223.51379
L 87.092667 223.51379
L 87.092667 222.443189
L 87.859667 222.443189
L 87.859667 221.729455
L 88.115333 221.729455
L 88.115333 221.372587
L 88.371 221.372587
L 88.371 221.01572
L 88.626667 221.01572
L 88.626667 220.658853
L 88.882333 220.658853
L 88.882333 220.301986
L 89.393667 220.301986
L 89.393667 219.588252
L 89.649333 219.588252
L 89.649333 219.409818
L 90.160667 219.409818
L 90.160667 218.160783
L 90.672 218.160783
L 90.672 217.625483
L 91.439 217.625483
L 91.439 217.447049
L 91.694667 217.447049
L 91.694667 216.733315
L 91.950333 216.733315
L 91.950333 216.198014
L 92.461667 216.198014
L 92.461667 216.01958
L 92.717333 216.01958
L 92.717333 215.305846
L 93.228667 215.305846
L 93.228667 215.127413
L 93.484333 215.127413
L 93.484333 214.235245
L 93.74 214.235245
L 93.74 213.52151
L 94.251333 213.52151
L 94.251333 212.807776
L 94.762667 212.807776
L 94.762667 212.629343
L 95.274 212.629343
L 95.274 211.915608
L 95.529667 211.915608
L 95.529667 211.737175
L 95.785333 211.737175
L 95.785333 211.558741
L 96.552333 211.558741
L 96.552333 211.201874
L 97.063667 211.201874
L 97.063667 210.666573
L 97.830667 210.666573
L 97.830667 209.239105
L 98.342 209.239105
L 98.342 209.060671
L 98.853333 209.060671
L 98.853333 208.703804
L 99.364667 208.703804
L 99.364667 207.454769
L 99.620333 207.454769
L 99.620333 205.848867
L 100.643 205.848867
L 100.643 205.670434
L 100.898667 205.670434
L 100.898667 204.956699
L 101.154333 204.956699
L 101.154333 204.421399
L 101.665667 204.421399
L 101.665667 204.242965
L 101.921333 204.242965
L 101.921333 203.529231
L 102.432667 203.529231
L 102.432667 203.172364
L 102.688333 203.172364
L 102.688333 202.99393
L 103.199667 202.99393
L 103.199667 202.637063
L 103.455333 202.637063
L 103.455333 202.458629
L 103.711 202.458629
L 103.711 202.280196
L 103.966667 202.280196
L 103.966667 201.923329
L 104.733667 201.923329
L 104.733667 201.566462
L 104.989333 201.566462
L 104.989333 201.031161
L 105.245 201.031161
L 105.245 200.674294
L 106.012 200.674294
L 106.012 200.49586
L 106.523333 200.49586
L 106.523333 199.246825
L 106.779 199.246825
L 106.779 199.068392
L 107.034667 199.068392
L 107.034667 198.889958
L 107.290333 198.889958
L 107.290333 198.711524
L 107.546 198.711524
L 107.546 198.354657
L 108.824333 198.354657
L 108.824333 198.176224
L 109.08 198.176224
L 109.08 197.99779
L 109.335667 197.99779
L 109.335667 197.819357
L 109.847 197.819357
L 109.847 196.927189
L 110.614 196.927189
L 110.614 196.748755
L 110.869667 196.748755
L 110.869667 195.678154
L 111.125333 195.678154
L 111.125333 195.321287
L 111.636667 195.321287
L 111.636667 194.96442
L 112.148 194.96442
L 112.148 194.429119
L 112.403667 194.429119
L 112.403667 194.072252
L 112.659333 194.072252
L 112.659333 192.644783
L 114.449 192.644783
L 114.449 192.287916
L 114.704667 192.287916
L 114.704667 191.931049
L 114.960333 191.931049
L 114.960333 190.682014
L 115.983 190.682014
L 115.983 190.50358
L 116.494333 190.50358
L 116.494333 190.146713
L 116.75 190.146713
L 116.75 189.96828
L 117.005667 189.96828
L 117.005667 189.432979
L 117.517 189.432979
L 117.517 188.897678
L 117.772667 188.897678
L 117.772667 188.540811
L 118.028333 188.540811
L 118.028333 188.183944
L 118.795333 188.183944
L 118.795333 188.00551
L 119.562333 188.00551
L 119.562333 187.827077
L 119.818 187.827077
L 119.818 187.47021
L 120.073667 187.47021
L 120.073667 187.291776
L 120.329333 187.291776
L 120.329333 186.578042
L 120.585 186.578042
L 120.585 185.685874
L 120.840667 185.685874
L 120.840667 185.150573
L 121.096333 185.150573
L 121.096333 184.258406
L 121.352 184.258406
L 121.352 184.079972
L 121.607667 184.079972
L 121.607667 183.901538
L 122.119 183.901538
L 122.119 183.723105
L 122.630333 183.723105
L 122.630333 181.403469
L 122.886 181.403469
L 122.886 180.689734
L 123.397333 180.689734
L 123.397333 180.154434
L 123.653 180.154434
L 123.653 179.976
L 123.908667 179.976
L 123.908667 179.619133
L 124.42 179.619133
L 124.42 179.262266
L 124.675667 179.262266
L 124.675667 179.083832
L 124.931333 179.083832
L 124.931333 178.548531
L 125.698333 178.548531
L 125.698333 178.191664
L 125.954 178.191664
L 125.954 177.834797
L 126.465333 177.834797
L 126.465333 176.942629
L 126.976667 176.942629
L 126.976667 176.764196
L 127.232333 176.764196
L 127.232333 176.585762
L 127.488 176.585762
L 127.488 176.050462
L 127.743667 176.050462
L 127.743667 175.693594
L 129.022 175.693594
L 129.022 175.158294
L 129.277667 175.158294
L 129.277667 174.97986
L 130.044667 174.97986
L 130.044667 174.801427
L 130.300333 174.801427
L 130.300333 174.622993
L 130.811667 174.622993
L 130.811667 173.909259
L 131.323 173.909259
L 131.323 173.017091
L 131.834333 173.017091
L 131.834333 172.838657
L 132.09 172.838657
L 132.09 172.48179
L 132.345667 172.48179
L 132.345667 172.124923
L 132.601333 172.124923
L 132.601333 171.768056
L 132.857 171.768056
L 132.857 171.589622
L 133.624 171.589622
L 133.624 171.054322
L 133.879667 171.054322
L 133.879667 170.875888
L 134.391 170.875888
L 134.391 170.519021
L 134.902333 170.519021
L 134.902333 170.162154
L 135.669333 170.162154
L 135.669333 169.98372
L 135.925 169.98372
L 135.925 169.626853
L 136.180667 169.626853
L 136.180667 169.44842
L 136.436333 169.44842
L 136.436333 168.913119
L 136.692 168.913119
L 136.692 168.556252
L 137.203333 168.556252
L 137.203333 167.842517
L 137.970333 167.842517
L 137.970333 166.771916
L 138.481667 166.771916
L 138.481667 166.236615
L 138.737333 166.236615
L 138.737333 165.879748
L 138.993 165.879748
L 138.993 165.701315
L 139.504333 165.701315
L 139.504333 165.522881
L 140.271333 165.522881
L 140.271333 165.344448
L 141.294 165.344448
L 141.294 165.166014
L 141.549667 165.166014
L 141.549667 164.98758
L 141.805333 164.98758
L 141.805333 164.809147
L 142.061 164.809147
L 142.061 163.738545
L 142.572333 163.738545
L 142.572333 163.024811
L 143.339333 163.024811
L 143.339333 162.311077
L 143.595 162.311077
L 143.595 162.132643
L 143.850667 162.132643
L 143.850667 161.95421
L 144.617667 161.95421
L 144.617667 160.169874
L 144.873333 160.169874
L 144.873333 159.45614
L 145.129 159.45614
L 145.129 159.099273
L 145.384667 159.099273
L 145.384667 158.385538
L 145.896 158.385538
L 145.896 158.028671
L 146.918667 158.028671
L 146.918667 157.314937
L 147.43 157.314937
L 147.43 156.779636
L 147.941333 156.779636
L 147.941333 156.601203
L 148.452667 156.601203
L 148.452667 156.065902
L 148.964 156.065902
L 148.964 155.887469
L 150.753667 155.887469
L 150.753667 154.995301
L 151.009333 154.995301
L 151.009333 154.46
L 151.265 154.46
L 151.265 154.103133
L 151.520667 154.103133
L 151.520667 153.746266
L 152.287667 153.746266
L 152.287667 153.389399
L 152.543333 153.389399
L 152.543333 153.032531
L 153.310333 153.032531
L 153.310333 152.854098
L 154.077333 152.854098
L 154.077333 152.497231
L 154.588667 152.497231
L 154.588667 152.318797
L 155.611333 152.318797
L 155.611333 151.96193
L 155.867 151.96193
L 155.867 151.783497
L 156.378333 151.783497
L 156.378333 151.605063
L 157.145333 151.605063
L 157.145333 149.820727
L 158.168 149.820727
L 158.168 149.106993
L 159.190667 149.106993
L 159.190667 148.750126
L 159.446333 148.750126
L 159.446333 148.214825
L 159.702 148.214825
L 159.702 148.036392
L 160.213333 148.036392
L 160.213333 147.857958
L 160.724667 147.857958
L 160.724667 147.322657
L 160.980333 147.322657
L 160.980333 146.96579
L 161.236 146.96579
L 161.236 146.252056
L 161.491667 146.252056
L 161.491667 146.073622
L 162.003 146.073622
L 162.003 145.895189
L 162.258667 145.895189
L 162.258667 145.716755
L 162.514333 145.716755
L 162.514333 145.538322
L 162.77 145.538322
L 162.77 145.359888
L 163.025667 145.359888
L 163.025667 145.181455
L 163.281333 145.181455
L 163.281333 144.289287
L 163.537 144.289287
L 163.537 143.753986
L 164.048333 143.753986
L 164.048333 143.397119
L 164.304 143.397119
L 164.304 143.218685
L 165.071 143.218685
L 165.071 143.040252
L 165.582333 143.040252
L 165.582333 142.683385
L 166.093667 142.683385
L 166.093667 141.791217
L 166.605 141.791217
L 166.605 141.612783
L 167.116333 141.612783
L 167.116333 141.43435
L 167.372 141.43435
L 167.372 141.255916
L 167.883333 141.255916
L 167.883333 140.899049
L 168.650333 140.899049
L 168.650333 140.720615
L 168.906 140.720615
L 168.906 140.542182
L 169.161667 140.542182
L 169.161667 139.828448
L 169.417333 139.828448
L 169.417333 139.650014
L 169.673 139.650014
L 169.673 139.114713
L 169.928667 139.114713
L 169.928667 138.757846
L 170.44 138.757846
L 170.44 137.687245
L 170.695667 137.687245
L 170.695667 137.508811
L 171.207 137.508811
L 171.207 136.795077
L 171.462667 136.795077
L 171.462667 136.43821
L 172.741 136.43821
L 172.741 136.259776
L 172.996667 136.259776
L 172.996667 136.081343
L 173.763667 136.081343
L 173.763667 135.189175
L 174.019333 135.189175
L 174.019333 134.653874
L 175.042 134.653874
L 175.042 134.475441
L 175.297667 134.475441
L 175.297667 134.297007
L 175.553333 134.297007
L 175.553333 134.118573
L 175.809 134.118573
L 175.809 133.761706
L 176.064667 133.761706
L 176.064667 133.404839
L 176.320333 133.404839
L 176.320333 133.047972
L 176.576 133.047972
L 176.576 132.691105
L 177.598667 132.691105
L 177.598667 132.334238
L 177.854333 132.334238
L 177.854333 132.155804
L 178.621333 132.155804
L 178.621333 131.977371
L 179.132667 131.977371
L 179.132667 131.798937
L 179.388333 131.798937
L 179.388333 131.620503
L 179.644 131.620503
L 179.644 131.44207
L 179.899667 131.44207
L 179.899667 131.085203
L 180.155333 131.085203
L 180.155333 130.906769
L 180.411 130.906769
L 180.411 130.371469
L 180.666667 130.371469
L 180.666667 130.193035
L 180.922333 130.193035
L 180.922333 130.014601
L 181.178 130.014601
L 181.178 129.657734
L 181.689333 129.657734
L 181.689333 129.479301
L 182.200667 129.479301
L 182.200667 129.300867
L 183.223333 129.300867
L 183.223333 128.944
L 183.990333 128.944
L 183.990333 128.765566
L 184.501667 128.765566
L 184.501667 128.408699
L 185.268667 128.408699
L 185.268667 128.230266
L 185.524333 128.230266
L 185.524333 127.873399
L 185.78 127.873399
L 185.78 127.694965
L 186.035667 127.694965
L 186.035667 127.516531
L 186.547 127.516531
L 186.547 127.338098
L 186.802667 127.338098
L 186.802667 127.159664
L 187.569667 127.159664
L 187.569667 126.981231
L 187.825333 126.981231
L 187.825333 126.624364
L 188.081 126.624364
L 188.081 126.267497
L 188.848 126.267497
L 188.848 125.910629
L 189.870667 125.910629
L 189.870667 125.018462
L 190.126333 125.018462
L 190.126333 124.661594
L 190.893333 124.661594
L 190.893333 124.483161
L 191.149 124.483161
L 191.149 123.94786
L 191.404667 123.94786
L 191.404667 123.769427
L 191.660333 123.769427
L 191.660333 123.590993
L 191.916 123.590993
L 191.916 122.877259
L 192.427333 122.877259
L 192.427333 122.163524
L 192.683 122.163524
L 192.683 121.806657
L 193.194333 121.806657
L 193.194333 121.271357
L 193.705667 121.271357
L 193.705667 120.557622
L 194.217 120.557622
L 194.217 120.200755
L 194.472667 120.200755
L 194.472667 120.022322
L 194.728333 120.022322
L 194.728333 118.95172
L 195.751 118.95172
L 195.751 118.059552
L 196.006667 118.059552
L 196.006667 117.881119
L 197.796333 117.881119
L 197.796333 116.988951
L 198.563333 116.988951
L 198.563333 116.632084
L 199.841667 116.632084
L 199.841667 116.45365
L 200.097333 116.45365
L 200.097333 116.275217
L 200.353 116.275217
L 200.353 116.096783
L 200.864333 116.096783
L 200.864333 115.91835
L 201.631333 115.91835
L 201.631333 115.739916
L 202.142667 115.739916
L 202.142667 115.561483
L 202.398333 115.561483
L 202.398333 115.026182
L 202.654 115.026182
L 202.654 114.847748
L 203.932333 114.847748
L 203.932333 114.312448
L 204.188 114.312448
L 204.188 113.95558
L 204.699333 113.95558
L 204.699333 113.777147
L 204.955 113.777147
L 204.955 113.598713
L 205.722 113.598713
L 205.722 113.42028
L 205.977667 113.42028
L 205.977667 112.884979
L 206.233333 112.884979
L 206.233333 112.706545
L 206.489 112.706545
L 206.489 111.814378
L 207.000333 111.814378
L 207.000333 111.635944
L 207.256 111.635944
L 207.256 111.45751
L 208.534333 111.45751
L 208.534333 110.92221
L 208.79 110.92221
L 208.79 110.743776
L 209.045667 110.743776
L 209.045667 110.208476
L 209.812667 110.208476
L 209.812667 110.030042
L 210.068333 110.030042
L 210.068333 109.851608
L 210.324 109.851608
L 210.324 109.673175
L 210.579667 109.673175
L 210.579667 109.494741
L 211.091 109.494741
L 211.091 108.959441
L 211.346667 108.959441
L 211.346667 108.42414
L 212.369333 108.42414
L 212.369333 108.245706
L 212.880667 108.245706
L 212.880667 107.888839
L 213.647667 107.888839
L 213.647667 107.353538
L 214.159 107.353538
L 214.159 107.175105
L 214.926 107.175105
L 214.926 106.996671
L 216.204333 106.996671
L 216.204333 106.818238
L 216.715667 106.818238
L 216.715667 106.639804
L 217.482667 106.639804
L 217.482667 106.461371
L 217.738333 106.461371
L 217.738333 106.104503
L 219.272333 106.104503
L 219.272333 105.92607
L 219.528 105.92607
L 219.528 105.390769
L 220.295 105.390769
L 220.295 105.033902
L 220.550667 105.033902
L 220.550667 104.498601
L 220.806333 104.498601
L 220.806333 104.141734
L 221.062 104.141734
L 221.062 103.963301
L 222.084667 103.963301
L 222.084667 103.784867
L 222.596 103.784867
L 222.596 103.606434
L 222.851667 103.606434
L 222.851667 103.428
L 223.363 103.428
L 223.363 103.249566
L 223.874333 103.249566
L 223.874333 102.000531
L 224.385667 102.000531
L 224.385667 101.108364
L 225.152667 101.108364
L 225.152667 100.92993
L 225.408333 100.92993
L 225.408333 100.751497
L 225.919667 100.751497
L 225.919667 100.394629
L 226.175333 100.394629
L 226.175333 100.216196
L 227.198 100.216196
L 227.198 99.859329
L 228.476333 99.859329
L 228.476333 99.680895
L 229.499 99.680895
L 229.499 99.502462
L 230.266 99.502462
L 230.266 98.788727
L 232.567 98.788727
L 232.567 98.610294
L 232.822667 98.610294
L 232.822667 98.43186
L 233.334 98.43186
L 233.334 98.253427
L 233.845333 98.253427
L 233.845333 98.074993
L 234.101 98.074993
L 234.101 97.896559
L 234.356667 97.896559
L 234.356667 97.361259
L 234.612333 97.361259
L 234.612333 96.825958
L 235.890667 96.825958
L 235.890667 96.469091
L 236.146333 96.469091
L 236.146333 96.112224
L 237.169 96.112224
L 237.169 95.93379
L 237.936 95.93379
L 237.936 95.755357
L 238.447333 95.755357
L 238.447333 95.576923
L 239.47 95.576923
L 239.47 95.220056
L 239.725667 95.220056
L 239.725667 95.041622
L 240.237 95.041622
L 240.237 94.506322
L 240.492667 94.506322
L 240.492667 94.327888
L 240.748333 94.327888
L 240.748333 94.149455
L 241.004 94.149455
L 241.004 93.971021
L 241.259667 93.971021
L 241.259667 93.614154
L 242.282333 93.614154
L 242.282333 93.43572
L 242.538 93.43572
L 242.538 93.078853
L 243.049333 93.078853
L 243.049333 92.90042
L 243.816333 92.90042
L 243.816333 92.721986
L 244.072 92.721986
L 244.072 92.543552
L 244.327667 92.543552
L 244.327667 92.365119
L 245.350333 92.365119
L 245.350333 92.186685
L 245.861667 92.186685
L 245.861667 91.651385
L 246.117333 91.651385
L 246.117333 91.294517
L 246.373 91.294517
L 246.373 90.93765
L 246.628667 90.93765
L 246.628667 90.759217
L 246.884333 90.759217
L 246.884333 90.40235
L 247.14 90.40235
L 247.14 90.223916
L 247.651333 90.223916
L 247.651333 90.045483
L 248.418333 90.045483
L 248.418333 89.867049
L 248.929667 89.867049
L 248.929667 89.688615
L 249.696667 89.688615
L 249.696667 89.331748
L 250.208 89.331748
L 250.208 88.974881
L 251.486333 88.974881
L 251.486333 88.43958
L 252.253333 88.43958
L 252.253333 87.90428
L 252.509 87.90428
L 252.509 87.547413
L 252.764667 87.547413
L 252.764667 87.368979
L 253.276 87.368979
L 253.276 86.655245
L 253.531667 86.655245
L 253.531667 86.298378
L 253.787333 86.298378
L 253.787333 86.119944
L 254.554333 86.119944
L 254.554333 85.94151
L 254.81 85.94151
L 254.81 85.40621
L 255.321333 85.40621
L 255.321333 85.227776
L 256.599667 85.227776
L 256.599667 84.692476
L 257.111 84.692476
L 257.111 84.514042
L 257.622333 84.514042
L 257.622333 83.800308
L 258.389333 83.800308
L 258.389333 83.621874
L 258.900667 83.621874
L 258.900667 83.443441
L 259.156333 83.443441
L 259.156333 83.265007
L 260.946 83.265007
L 260.946 82.90814
L 261.201667 82.90814
L 261.201667 82.729706
L 261.457333 82.729706
L 261.457333 82.372839
L 261.968667 82.372839
L 261.968667 82.194406
L 262.991333 82.194406
L 262.991333 82.015972
L 263.247 82.015972
L 263.247 81.837538
L 263.758333 81.837538
L 263.758333 81.659105
L 264.781 81.659105
L 264.781 81.480671
L 265.548 81.480671
L 265.548 81.302238
L 266.826333 81.302238
L 266.826333 81.123804
L 267.082 81.123804
L 267.082 80.945371
L 268.104667 80.945371
L 268.104667 80.766937
L 268.871667 80.766937
L 268.871667 80.41007
L 269.638667 80.41007
L 269.638667 79.874769
L 270.405667 79.874769
L 270.405667 79.696336
L 271.172667 79.696336
L 271.172667 79.339469
L 272.451 79.339469
L 272.451 78.982601
L 272.706667 78.982601
L 272.706667 78.625734
L 272.962333 78.625734
L 272.962333 78.268867
L 273.473667 78.268867
L 273.473667 78.090434
L 273.729333 78.090434
L 273.729333 77.733566
L 275.519 77.733566
L 275.519 77.555133
L 276.286 77.555133
L 276.286 77.019832
L 276.797333 77.019832
L 276.797333 76.841399
L 278.075667 76.841399
L 278.075667 76.662965
L 278.331333 76.662965
L 278.331333 76.484531
L 278.587 76.484531
L 278.587 76.127664
L 278.842667 76.127664
L 278.842667 75.949231
L 279.354 75.949231
L 279.354 75.770797
L 279.865333 75.770797
L 279.865333 75.592364
L 280.632333 75.592364
L 280.632333 75.235497
L 280.888 75.235497
L 280.888 74.521762
L 281.399333 74.521762
L 281.399333 74.343329
L 281.910667 74.343329
L 281.910667 73.986462
L 282.422 73.986462
L 282.422 73.629594
L 282.677667 73.629594
L 282.677667 73.094294
L 282.933333 73.094294
L 282.933333 72.91586
L 283.189 72.91586
L 283.189 72.737427
L 285.49 72.737427
L 285.49 72.558993
L 285.745667 72.558993
L 285.745667 72.380559
L 286.001333 72.380559
L 286.001333 72.023692
L 286.768333 72.023692
L 286.768333 71.845259
L 287.279667 71.845259
L 287.279667 71.666825
L 287.535333 71.666825
L 287.535333 71.488392
L 287.791 71.488392
L 287.791 71.309958
L 288.302333 71.309958
L 288.302333 70.596224
L 288.558 70.596224
L 288.558 70.41779
L 288.813667 70.41779
L 288.813667 70.239357
L 290.092 70.239357
L 290.092 70.060923
L 290.859 70.060923
L 290.859 69.704056
L 291.626 69.704056
L 291.626 69.525622
L 291.881667 69.525622
L 291.881667 69.168755
L 293.16 69.168755
L 293.16 68.811888
L 293.415667 68.811888
L 293.415667 68.633455
L 293.671333 68.633455
L 293.671333 68.276587
L 296.228 68.276587
L 296.228 68.098154
L 296.995 68.098154
L 296.995 67.91972
L 297.250667 67.91972
L 297.250667 67.38442
L 297.506333 67.38442
L 297.506333 67.205986
L 297.762 67.205986
L 297.762 67.027552
L 298.017667 67.027552
L 298.017667 66.670685
L 299.551667 66.670685
L 299.551667 66.492252
L 300.318667 66.492252
L 300.318667 66.313818
L 300.83 66.313818
L 300.83 66.135385
L 301.597 66.135385
L 301.597 65.778517
L 302.364 65.778517
L 302.364 65.42165
L 304.665 65.42165
L 304.665 65.243217
L 304.920667 65.243217
L 304.920667 65.064783
L 305.687667 65.064783
L 305.687667 64.88635
L 306.199 64.88635
L 306.199 64.707916
L 307.221667 64.707916
L 307.221667 64.529483
L 307.477333 64.529483
L 307.477333 64.351049
L 307.988667 64.351049
L 307.988667 64.172615
L 308.5 64.172615
L 308.5 63.994182
L 308.755667 63.994182
L 308.755667 63.815748
L 309.011333 63.815748
L 309.011333 63.458881
L 310.289667 63.458881
L 310.289667 63.102014
L 310.545333 63.102014
L 310.545333 62.92358
L 311.056667 62.92358
L 311.056667 62.566713
L 313.102 62.566713
L 313.102 62.38828
L 313.357667 62.38828
L 313.357667 62.209846
L 313.613333 62.209846
L 313.613333 61.852979
L 316.17 61.852979
L 316.17 61.317678
L 317.959667 61.317678
L 317.959667 61.139245
L 318.982333 61.139245
L 318.982333 60.782378
L 320.005 60.782378
L 320.005 60.603944
L 320.516333 60.603944
L 320.516333 60.42551
L 320.772 60.42551
L 320.772 59.711776
L 321.283333 59.711776
L 321.283333 59.533343
L 321.539 59.533343
L 321.539 59.354909
L 321.794667 59.354909
L 321.794667 58.462741
L 322.050333 58.462741
L 322.050333 58.105874
L 322.306 58.105874
L 322.306 57.927441
L 322.561667 57.927441
L 322.561667 57.570573
L 323.84 57.570573
L 323.84 57.39214
L 324.351333 57.39214
L 324.351333 57.035273
L 325.118333 57.035273
L 325.118333 56.856839
L 325.374 56.856839
L 325.374 56.678406
L 325.885333 56.678406
L 325.885333 56.321538
L 327.163667 56.321538
L 327.163667 56.143105
L 328.697667 56.143105
L 328.697667 55.964671
L 328.953333 55.964671
L 328.953333 55.786238
L 329.209 55.786238
L 329.209 55.607804
L 329.464667 55.607804
L 329.464667 55.429371
L 329.976 55.429371
L 329.976 55.250937
L 330.231667 55.250937
L 330.231667 55.072503
L 330.487333 55.072503
L 330.487333 54.89407
L 330.743 54.89407
L 330.743 54.715636
L 331.254333 54.715636
L 331.254333 54.537203
L 331.51 54.537203
L 331.51 54.358769
L 332.021333 54.358769
L 332.021333 54.180336
L 332.277 54.180336
L 332.277 53.823469
L 333.299667 53.823469
L 333.299667 53.645035
L 334.578 53.645035
L 334.578 53.466601
L 335.345 53.466601
L 335.345 53.109734
L 337.134667 53.109734
L 337.134667 52.752867
L 337.390333 52.752867
L 337.390333 52.574434
L 337.646 52.574434
L 337.646 52.217566
L 339.18 52.217566
L 339.18 51.682266
L 339.691333 51.682266
L 339.691333 51.503832
L 339.947 51.503832
L 339.947 51.146965
L 340.202667 51.146965
L 340.202667 50.790098
L 340.458333 50.790098
L 340.458333 50.433231
L 342.759333 50.433231
L 342.759333 50.076364
L 343.015 50.076364
L 343.015 49.89793
L 343.270667 49.89793
L 343.270667 49.719497
L 344.037667 49.719497
L 344.037667 49.541063
L 344.293333 49.541063
L 344.293333 49.362629
L 344.804667 49.362629
L 344.804667 49.184196
L 345.316 49.184196
L 345.316 49.005762
L 345.571667 49.005762
L 345.571667 48.470462
L 346.083 48.470462
L 346.083 48.292028
L 346.338667 48.292028
L 346.338667 47.935161
L 346.594333 47.935161
L 346.594333 47.578294
L 347.872667 47.578294
L 347.872667 47.39986
L 348.384 47.39986
L 348.384 46.864559
L 349.406667 46.864559
L 349.406667 46.686126
L 349.662333 46.686126
L 349.662333 46.507692
L 352.219 46.507692
L 352.219 46.329259
L 353.497333 46.329259
L 353.497333 45.972392
L 354.52 45.972392
L 354.52 45.793958
L 355.031333 45.793958
L 355.031333 44.723357
L 355.287 44.723357
L 355.287 44.188056
L 355.798333 44.188056
L 355.798333 44.009622
L 356.821 44.009622
L 356.821 43.831189
L 357.076667 43.831189
L 357.076667 43.474322
L 357.843667 43.474322
L 357.843667 43.295888
L 358.355 43.295888
L 358.355 43.117455
L 358.866333 43.117455
L 358.866333 42.939021
L 360.144667 42.939021
L 360.144667 42.582154
L 360.400333 42.582154
L 360.400333 42.40372
L 360.911667 42.40372
L 360.911667 42.225287
L 361.167333 42.225287
L 361.167333 41.86842
L 361.423 41.86842
L 361.423 41.511552
L 361.678667 41.511552
L 361.678667 41.333119
L 362.701333 41.333119
L 362.701333 41.154685
L 363.979667 41.154685
L 363.979667 40.976252
L 364.491 40.976252
L 364.491 40.797818
L 365.002333 40.797818
L 365.002333 40.619385
L 366.280667 40.619385
L 366.280667 40.084084
L 366.792 40.084084
L 366.792 39.727217
L 367.814667 39.727217
L 367.814667 39.548783
L 369.86 38.478182
L 369.86 38.478182
" clip-path="url(#pa69e693fc2)" style="fill: none; stroke: #c84630; stroke-width: 2; stroke-linecap: square"/>
   </g>
   <g id="line2d_27">
    <path d="M 63.06 270.441818
L 369.86 38.478182
" clip-path="url(#pa69e693fc2)" style="fill: none; stroke-dasharray: 3.33,1.44; stroke-dashoffset: 0; stroke: #000000; stroke-width: 0.9"/>
   </g>
   <g id="patch_3">
    <path d="M 47.72 282.04
L 47.72 26.88
" style="fill: none; stroke: #000000; stroke-width: 0.8; stroke-linejoin: miter; stroke-linecap: square"/>
   </g>
   <g id="patch_4">
    <path d="M 385.2 282.04
L 385.2 26.88
" style="fill: none; stroke: #000000; stroke-width: 0.8; stroke-linejoin: miter; stroke-linecap: square"/>
   </g>
   <g id="patch_5">
    <path d="M 47.72 282.04
L 385.2 282.04
" style="fill: none; stroke: #000000; stroke-width: 0.8; stroke-linejoin: miter; stroke-linecap: square"/>
   </g>
   <g id="patch_6">
    <path d="M 47.72 26.88
L 385.2 26.88
" style="fill: none; stroke: #000000; stroke-width: 0.8; stroke-linejoin: miter; stroke-linecap: square"/>
   </g>
   <g id="text_15">
    <!-- NTIRE ROC comparison -->
    <g transform="translate(146.647188 20.88) scale(0.12 -0.12)">
     <defs>
      <path id="DejaVuSans-4e" d="M 628 4666
L 1478 4666
L 3547 763
L 3547 4666
L 4159 4666
L 4159 0
L 3309 0
L 1241 3903
L 1241 0
L 628 0
L 628 4666
z
" transform="scale(0.015625)"/>
      <path id="DejaVuSans-49" d="M 628 4666
L 1259 4666
L 1259 0
L 628 0
L 628 4666
z
" transform="scale(0.015625)"/>
      <path id="DejaVuSans-52" d="M 2841 2188
Q 3044 2119 3236 1894
Q 3428 1669 3622 1275
L 4263 0
L 3584 0
L 2988 1197
Q 2756 1666 2539 1819
Q 2322 1972 1947 1972
L 1259 1972
L 1259 0
L 628 0
L 628 4666
L 2053 4666
Q 2853 4666 3247 4331
Q 3641 3997 3641 3322
Q 3641 2881 3436 2590
Q 3231 2300 2841 2188
z
M 1259 4147
L 1259 2491
L 2053 2491
Q 2509 2491 2742 2702
Q 2975 2913 2975 3322
Q 2975 3731 2742 3939
Q 2509 4147 2053 4147
L 1259 4147
z
" transform="scale(0.015625)"/>
      <path id="DejaVuSans-45" d="M 628 4666
L 3578 4666
L 3578 4134
L 1259 4134
L 1259 2753
L 3481 2753
L 3481 2222
L 1259 2222
L 1259 531
L 3634 531
L 3634 0
L 628 0
L 628 4666
z
" transform="scale(0.015625)"/>
      <path id="DejaVuSans-4f" d="M 2522 4238
Q 1834 4238 1429 3725
Q 1025 3213 1025 2328
Q 1025 1447 1429 934
Q 1834 422 2522 422
Q 3209 422 3611 934
Q 4013 1447 4013 2328
Q 4013 3213 3611 3725
Q 3209 4238 2522 4238
z
M 2522 4750
Q 3503 4750 4090 4092
Q 4678 3434 4678 2328
Q 4678 1225 4090 567
Q 3503 -91 2522 -91
Q 1538 -91 948 565
Q 359 1222 359 2328
Q 359 3434 948 4092
Q 1538 4750 2522 4750
z
" transform="scale(0.015625)"/>
      <path id="DejaVuSans-43" d="M 4122 4306
L 4122 3641
Q 3803 3938 3442 4084
Q 3081 4231 2675 4231
Q 1875 4231 1450 3742
Q 1025 3253 1025 2328
Q 1025 1406 1450 917
Q 1875 428 2675 428
Q 3081 428 3442 575
Q 3803 722 4122 1019
L 4122 359
Q 3791 134 3420 21
Q 3050 -91 2638 -91
Q 1578 -91 968 557
Q 359 1206 359 2328
Q 359 3453 968 4101
Q 1578 4750 2638 4750
Q 3056 4750 3426 4639
Q 3797 4528 4122 4306
z
" transform="scale(0.015625)"/>
      <path id="DejaVuSans-63" d="M 3122 3366
L 3122 2828
Q 2878 2963 2633 3030
Q 2388 3097 2138 3097
Q 1578 3097 1268 2742
Q 959 2388 959 1747
Q 959 1106 1268 751
Q 1578 397 2138 397
Q 2388 397 2633 464
Q 2878 531 3122 666
L 3122 134
Q 2881 22 2623 -34
Q 2366 -91 2075 -91
Q 1284 -91 818 406
Q 353 903 353 1747
Q 353 2603 823 3093
Q 1294 3584 2113 3584
Q 2378 3584 2631 3529
Q 2884 3475 3122 3366
z
" transform="scale(0.015625)"/>
      <path id="DejaVuSans-6d" d="M 3328 2828
Q 3544 3216 3844 3400
Q 4144 3584 4550 3584
Q 5097 3584 5394 3201
Q 5691 2819 5691 2113
L 5691 0
L 5113 0
L 5113 2094
Q 5113 2597 4934 2840
Q 4756 3084 4391 3084
Q 3944 3084 3684 2787
Q 3425 2491 3425 1978
L 3425 0
L 2847 0
L 2847 2094
Q 2847 2600 2669 2842
Q 2491 3084 2119 3084
Q 1678 3084 1418 2786
Q 1159 2488 1159 1978
L 1159 0
L 581 0
L 581 3500
L 1159 3500
L 1159 2956
Q 1356 3278 1631 3431
Q 1906 3584 2284 3584
Q 2666 3584 2933 3390
Q 3200 3197 3328 2828
z
" transform="scale(0.015625)"/>
      <path id="DejaVuSans-6e" d="M 3513 2113
L 3513 0
L 2938 0
L 2938 2094
Q 2938 2591 2744 2837
Q 2550 3084 2163 3084
Q 1697 3084 1428 2787
Q 1159 2491 1159 1978
L 1159 0
L 581 0
L 581 3500
L 1159 3500
L 1159 2956
Q 1366 3272 1645 3428
Q 1925 3584 2291 3584
Q 2894 3584 3203 3211
Q 3513 2838 3513 2113
z
" transform="scale(0.015625)"/>
     </defs>
     <use xlink:href="#DejaVuSans-4e"/>
     <use xlink:href="#DejaVuSans-54" transform="translate(74.804688 0)"/>
     <use xlink:href="#DejaVuSans-49" transform="translate(135.888672 0)"/>
     <use xlink:href="#DejaVuSans-52" transform="translate(165.380859 0)"/>
     <use xlink:href="#DejaVuSans-45" transform="translate(234.863281 0)"/>
     <use xlink:href="#DejaVuSans-20" transform="translate(298.046875 0)"/>
     <use xlink:href="#DejaVuSans-52" transform="translate(329.833984 0)"/>
     <use xlink:href="#DejaVuSans-4f" transform="translate(399.316406 0)"/>
     <use xlink:href="#DejaVuSans-43" transform="translate(478.027344 0)"/>
     <use xlink:href="#DejaVuSans-20" transform="translate(547.851562 0)"/>
     <use xlink:href="#DejaVuSans-63" transform="translate(579.638672 0)"/>
     <use xlink:href="#DejaVuSans-6f" transform="translate(634.619141 0)"/>
     <use xlink:href="#DejaVuSans-6d" transform="translate(695.800781 0)"/>
     <use xlink:href="#DejaVuSans-70" transform="translate(793.212891 0)"/>
     <use xlink:href="#DejaVuSans-61" transform="translate(856.689453 0)"/>
     <use xlink:href="#DejaVuSans-72" transform="translate(917.96875 0)"/>
     <use xlink:href="#DejaVuSans-69" transform="translate(959.082031 0)"/>
     <use xlink:href="#DejaVuSans-73" transform="translate(986.865234 0)"/>
     <use xlink:href="#DejaVuSans-6f" transform="translate(1038.964844 0)"/>
     <use xlink:href="#DejaVuSans-6e" transform="translate(1100.146484 0)"/>
    </g>
   </g>
   <g id="legend_1">
    <g id="line2d_28">
     <path d="M 56.72 39.978437
L 66.72 39.978437
L 76.72 39.978437
" style="fill: none; stroke: #276fbf; stroke-width: 2; stroke-linecap: square"/>
    </g>
    <g id="text_16">
     <!-- AIDE AUC=0.613 -->
     <g transform="translate(84.72 43.478437) scale(0.1 -0.1)">
      <defs>
       <path id="DejaVuSans-41" d="M 2188 4044
L 1331 1722
L 3047 1722
L 2188 4044
z
M 1831 4666
L 2547 4666
L 4325 0
L 3669 0
L 3244 1197
L 1141 1197
L 716 0
L 50 0
L 1831 4666
z
" transform="scale(0.015625)"/>
       <path id="DejaVuSans-44" d="M 1259 4147
L 1259 519
L 2022 519
Q 2988 519 3436 956
Q 3884 1394 3884 2338
Q 3884 3275 3436 3711
Q 2988 4147 2022 4147
L 1259 4147
z
M 628 4666
L 1925 4666
Q 3281 4666 3915 4102
Q 4550 3538 4550 2338
Q 4550 1131 3912 565
Q 3275 0 1925 0
L 628 0
L 628 4666
z
" transform="scale(0.015625)"/>
       <path id="DejaVuSans-55" d="M 556 4666
L 1191 4666
L 1191 1831
Q 1191 1081 1462 751
Q 1734 422 2344 422
Q 2950 422 3222 751
Q 3494 1081 3494 1831
L 3494 4666
L 4128 4666
L 4128 1753
Q 4128 841 3676 375
Q 3225 -91 2344 -91
Q 1459 -91 1007 375
Q 556 841 556 1753
L 556 4666
z
" transform="scale(0.015625)"/>
       <path id="DejaVuSans-3d" d="M 678 2906
L 4684 2906
L 4684 2381
L 678 2381
L 678 2906
z
M 678 1631
L 4684 1631
L 4684 1100
L 678 1100
L 678 1631
z
" transform="scale(0.015625)"/>
       <path id="DejaVuSans-33" d="M 2597 2516
Q 3050 2419 3304 2112
Q 3559 1806 3559 1356
Q 3559 666 3084 287
Q 2609 -91 1734 -91
Q 1441 -91 1130 -33
Q 819 25 488 141
L 488 750
Q 750 597 1062 519
Q 1375 441 1716 441
Q 2309 441 2620 675
Q 2931 909 2931 1356
Q 2931 1769 2642 2001
Q 2353 2234 1838 2234
L 1294 2234
L 1294 2753
L 1863 2753
Q 2328 2753 2575 2939
Q 2822 3125 2822 3475
Q 2822 3834 2567 4026
Q 2313 4219 1838 4219
Q 1578 4219 1281 4162
Q 984 4106 628 3988
L 628 4550
Q 988 4650 1302 4700
Q 1616 4750 1894 4750
Q 2613 4750 3031 4423
Q 3450 4097 3450 3541
Q 3450 3153 3228 2886
Q 3006 2619 2597 2516
z
" transform="scale(0.015625)"/>
      </defs>
      <use xlink:href="#DejaVuSans-41"/>
      <use xlink:href="#DejaVuSans-49" transform="translate(68.408203 0)"/>
      <use xlink:href="#DejaVuSans-44" transform="translate(97.900391 0)"/>
      <use xlink:href="#DejaVuSans-45" transform="translate(174.902344 0)"/>
      <use xlink:href="#DejaVuSans-20" transform="translate(238.085938 0)"/>
      <use xlink:href="#DejaVuSans-41" transform="translate(269.873047 0)"/>
      <use xlink:href="#DejaVuSans-55" transform="translate(338.28125 0)"/>
      <use xlink:href="#DejaVuSans-43" transform="translate(411.474609 0)"/>
      <use xlink:href="#DejaVuSans-3d" transform="translate(481.298828 0)"/>
      <use xlink:href="#DejaVuSans-30" transform="translate(565.087891 0)"/>
      <use xlink:href="#DejaVuSans-2e" transform="translate(628.710938 0)"/>
      <use xlink:href="#DejaVuSans-36" transform="translate(660.498047 0)"/>
      <use xlink:href="#DejaVuSans-31" transform="translate(724.121094 0)"/>
      <use xlink:href="#DejaVuSans-33" transform="translate(787.744141 0)"/>
     </g>
    </g>
    <g id="line2d_29">
     <path d="M 56.72 54.656563
L 66.72 54.656563
L 76.72 54.656563
" style="fill: none; stroke: #c84630; stroke-width: 2; stroke-linecap: square"/>
    </g>
    <g id="text_17">
     <!-- SPAI AUC=0.643 -->
     <g transform="translate(84.72 58.156563) scale(0.1 -0.1)">
      <defs>
       <path id="DejaVuSans-53" d="M 3425 4513
L 3425 3897
Q 3066 4069 2747 4153
Q 2428 4238 2131 4238
Q 1616 4238 1336 4038
Q 1056 3838 1056 3469
Q 1056 3159 1242 3001
Q 1428 2844 1947 2747
L 2328 2669
Q 3034 2534 3370 2195
Q 3706 1856 3706 1288
Q 3706 609 3251 259
Q 2797 -91 1919 -91
Q 1588 -91 1214 -16
Q 841 59 441 206
L 441 856
Q 825 641 1194 531
Q 1563 422 1919 422
Q 2459 422 2753 634
Q 3047 847 3047 1241
Q 3047 1584 2836 1778
Q 2625 1972 2144 2069
L 1759 2144
Q 1053 2284 737 2584
Q 422 2884 422 3419
Q 422 4038 858 4394
Q 1294 4750 2059 4750
Q 2388 4750 2728 4690
Q 3069 4631 3425 4513
z
" transform="scale(0.015625)"/>
       <path id="DejaVuSans-50" d="M 1259 4147
L 1259 2394
L 2053 2394
Q 2494 2394 2734 2622
Q 2975 2850 2975 3272
Q 2975 3691 2734 3919
Q 2494 4147 2053 4147
L 1259 4147
z
M 628 4666
L 2053 4666
Q 2838 4666 3239 4311
Q 3641 3956 3641 3272
Q 3641 2581 3239 2228
Q 2838 1875 2053 1875
L 1259 1875
L 1259 0
L 628 0
L 628 4666
z
" transform="scale(0.015625)"/>
      </defs>
      <use xlink:href="#DejaVuSans-53"/>
      <use xlink:href="#DejaVuSans-50" transform="translate(63.476562 0)"/>
      <use xlink:href="#DejaVuSans-41" transform="translate(117.404297 0)"/>
      <use xlink:href="#DejaVuSans-49" transform="translate(185.8125 0)"/>
      <use xlink:href="#DejaVuSans-20" transform="translate(215.304688 0)"/>
      <use xlink:href="#DejaVuSans-41" transform="translate(247.091797 0)"/>
      <use xlink:href="#DejaVuSans-55" transform="translate(315.5 0)"/>
      <use xlink:href="#DejaVuSans-43" transform="translate(388.693359 0)"/>
      <use xlink:href="#DejaVuSans-3d" transform="translate(458.517578 0)"/>
      <use xlink:href="#DejaVuSans-30" transform="translate(542.306641 0)"/>
      <use xlink:href="#DejaVuSans-2e" transform="translate(605.929688 0)"/>
      <use xlink:href="#DejaVuSans-36" transform="translate(637.716797 0)"/>
      <use xlink:href="#DejaVuSans-34" transform="translate(701.339844 0)"/>
      <use xlink:href="#DejaVuSans-33" transform="translate(764.962891 0)"/>
     </g>
    </g>
   </g>
  </g>
 </g>
 <defs>
  <clipPath id="pa69e693fc2">
   <rect x="47.72" y="26.88" width="337.48" height="255.16"/>
  </clipPath>
 </defs>
</svg>
